<svg xmlns="http://www.w3.org/2000/svg" viewBox="0 0 1200 800" width="1200" height="800"><g transform="translate(595.0 39.0) rotate(0.0 -155.5 128.0) scale(-1.787787856839007 1.786200207924868)"><svg width="173.958" height="143.321" viewBox="0 0 173.958 143.321"><linearGradient id="a" gradientTransform="matrix(.87031272 -.49249951 .49249951 .87031272 -643.02 -396.285)" gradientUnits="userSpaceOnUse" x1="354.346" x2="354.346" y1="670.743" y2="709.997"><stop offset="0" stop-color="#ffe272"/><stop offset=".996" stop-color="#fff"/></linearGradient><linearGradient xmlns:xlink="http://www.w3.org/1999/xlink" id="b" gradientTransform="matrix(.08070343 .99673816 -.99673816 .08070343 -133.848 1335.142)" x1="-1236.778" x2="-1236.778" xlink:href="#a" y1="-417.351" y2="-389.236"/><linearGradient id="c" gradientUnits="userSpaceOnUse" x1="79.998" x2="79.998" y1="1.96" y2="129.621"><stop offset="0" stop-color="#fdbb6d"/><stop offset=".248" stop-color="#fdbb9f"/><stop offset=".475" stop-color="#d1d2d1"/><stop offset="1" stop-color="#feceaa"/></linearGradient><path d="M.7 37.593c-1.818-5.5-.455-19.587 8.407-15.542 4.363 2 7.044 14.906 9.907 18.95C21.786 44.909 5.88 53.317.7 37.593z" fill="url(#a)"/><path d="M163.4 65.424c4.084.07 14.332 3.42 9.1 7.922-2.567 2.175-11.77 1.955-15.082.708-3.158-1.148-5.725-8.754 5.982-8.63z" fill="url(#b)"/><path d="M157.358 58.687a2.5 2.5 0 0 1-1.861-4.168 30.886 30.886 0 0 0-2.406-43.614 2.5 2.5 0 0 1 3.336-3.725 35.887 35.887 0 0 1 2.794 50.675 2.493 2.493 0 0 1-1.863.832z" fill="#f9d5ff"/><path d="M123.23 114.9a28.447 28.447 0 0 0 1.98-.288 28.546 28.546 0 0 0 10.8-51.725c6.2-4.636 11.033-11.815 12.84-21.694a27.022 27.022 0 0 0-.889-11.512c-7.6-21.983-29.781-28-45.709-19.242-13.343-11.563-33.8-14.9-53.112-2.875a33.963 33.963 0 0 0-12.851 14.6c-5.034 10.917-5.739 21.48-3.455 30.773a.644.644 0 0 1-.462.778c-18.809 5.115-29.26 28.2-14.529 47.768a21.087 21.087 0 0 0 8.615 6.685c9.959 4.229 19.364 3.494 26.817-.291A26.724 26.724 0 0 0 94.3 120.686a29.2 29.2 0 0 0 47.284 5.138A29.194 29.194 0 0 1 123.23 114.9z" fill="url(#c)"/><path d="M69.1 143.321a29.248 29.248 0 0 1-26.6-17.111 31.833 31.833 0 0 1-18.757 1.548 2.5 2.5 0 1 1 1.087-4.88 26.787 26.787 0 0 0 17.885-2.254 2.5 2.5 0 0 1 3.494 1.409A24.241 24.241 0 0 0 69.1 138.321a2.5 2.5 0 1 1 0 5z" fill="#f9d5ff"/></svg></g><g transform="translate(837.0 441.0) rotate(0.0 130.0 136.5) scale(0.6325480006617425 0.6303219490570569)"><svg width="411.036" height="433.112" viewBox="0 0 411.036 433.112"><path d="M344.361 174.852H129.022L192.001 3.687H407.34z" fill="#FFFFA1"/><g fill="#FFD8A1"><path d="M344.361 178.54H129.022a3.664 3.664 0 0 1-3.466-4.941L188.535 2.434A3.658 3.658 0 0 1 192 0h215.34a3.738 3.738 0 0 1 3.024 1.549 3.7 3.7 0 0 1 .442 3.392l-62.979 171.165a3.659 3.659 0 0 1-3.466 2.434zm-210.03-7.375H341.78l60.25-163.79H194.582z"/><path d="M272.384 178.54H43.033a3.688 3.688 0 0 1 0-7.375h229.351a3.688 3.688 0 1 1 0 7.375zm111.874 254.572a3.709 3.709 0 0 1-3.614-3.1l-39.9-254.573a3.692 3.692 0 0 1 7.3-1.106l39.9 254.573a3.672 3.672 0 0 1-3.1 4.2z"/><path d="M200.408 433.112a1.619 1.619 0 0 1-.59-.074 3.726 3.726 0 0 1-3.1-4.2l39.9-254.572a3.692 3.692 0 1 1 7.3 1.106l-39.9 254.572a3.652 3.652 0 0 1-3.61 3.168zm-12.832 0a3.708 3.708 0 0 1-3.613-3.1l-39.9-254.573a3.692 3.692 0 0 1 7.3-1.106l39.823 254.5a3.672 3.672 0 0 1-3.1 4.2 1.089 1.089 0 0 1-.51.079zm-183.849 0a1.616 1.616 0 0 1-.59-.074 3.726 3.726 0 0 1-3.1-4.2l39.9-254.572a3.692 3.692 0 1 1 7.3 1.106L7.34 429.941a3.651 3.651 0 0 1-3.613 3.171z"/></g></svg></g><g transform="translate(261.0 455.0) rotate(0.0 207.0 127.0) scale(0.8400974025974026 0.8385605810498515)"><svg width="492.8" height="302.9" viewBox="0 0 492.8 302.9"><linearGradient id="d" gradientTransform="translate(0 -1170.524)" gradientUnits="userSpaceOnUse" x1="246.4" x2="246.4" y1="1185.637" y2="1368.242"><stop offset="0" stop-color="#ffefa1"/><stop offset="1" stop-color="#fff"/></linearGradient><linearGradient xmlns:xlink="http://www.w3.org/1999/xlink" id="e" x1="248.35" x2="248.35" xlink:href="#d" y1="1363.835" y2="1470.268"/><linearGradient xmlns:xlink="http://www.w3.org/1999/xlink" id="f" x1="35.85" x2="35.85" xlink:href="#d" y1="1304.783" y2="1458.719"/><linearGradient xmlns:xlink="http://www.w3.org/1999/xlink" id="g" x1="456.9" x2="456.9" xlink:href="#d" y1="1304.783" y2="1458.719"/><path d="M54.6 0h383.6a54.606 54.606 0 0 1 54.6 54.6v217.3H0V54.4A54.5 54.5 0 0 1 54.6 0z" fill="url(#d)"/><path d="M39.8 188.7h417.1v83.2H39.8z" fill="url(#e)"/><path d="M25.9 133.8h19.8a25.905 25.905 0 0 1 25.9 25.9v112.2H.1V159.7a25.694 25.694 0 0 1 25.8-25.9z" fill="url(#f)"/><path d="M485 302.9h7.7v-31h-19.8zm-477.2 0H0v-31h19.9z" fill="#2b2b2b"/><path d="M492.7 271.9h-71.6V159.7a25.82 25.82 0 0 1 25.9-25.8h19.8a25.905 25.905 0 0 1 25.9 25.9z" fill="url(#g)"/><g fill="#fff"><circle cx="457" cy="182.2" r="7.4"/><circle cx="35.8" cy="182.2" r="7.4"/></g></svg></g><g transform="translate(784.0 293.0) rotate(0.0 158.5 214.0) scale(0.808053000119806 0.8088275590982708)"><svg width="392.301" height="529.161" viewBox="0 0 392.301 529.161"><linearGradient id="h" gradientTransform="translate(0 792)" gradientUnits="userSpaceOnUse" x1="183.227" x2="183.227" y1="-543.668" y2="-745.742"><stop offset="0" stop-color="#ea979a"/><stop offset=".409" stop-color="#f2d38b"/><stop offset=".499" stop-color="#7e9dae"/><stop offset=".599" stop-color="#90979d"/><stop offset="1" stop-color="#7ebddb"/></linearGradient><linearGradient xmlns:xlink="http://www.w3.org/1999/xlink" id="j" x1="262.216" x2="262.216" xlink:href="#h" y1="-543.67" y2="-745.745"/><linearGradient id="i" gradientTransform="translate(0 792)" gradientUnits="userSpaceOnUse" x1="235.772" x2="235.772" y1="-268.192" y2="-611.369"><stop offset="0" stop-color="#9774ac"/><stop offset=".401" stop-color="#47a6d3"/><stop offset=".501" stop-color="#a7a7ae"/><stop offset=".591" stop-color="#e89ac0"/><stop offset="1" stop-color="#bfe7d1"/></linearGradient><linearGradient xmlns:xlink="http://www.w3.org/1999/xlink" id="k" x1="183.426" x2="183.426" xlink:href="#i" y1="-268.316" y2="-608.736"/><linearGradient xmlns:xlink="http://www.w3.org/1999/xlink" id="l" x1="332.308" x2="332.308" xlink:href="#h" y1="-543.668" y2="-745.742"/><linearGradient xmlns:xlink="http://www.w3.org/1999/xlink" id="m" x1="185.513" x2="185.513" xlink:href="#i" y1="-268.316" y2="-608.736"/><linearGradient xmlns:xlink="http://www.w3.org/1999/xlink" id="n" x1="227.02" x2="227.02" xlink:href="#i" y1="-268.316" y2="-608.736"/><path d="m324.168 217.929 1.388 55.415a41.815 41.815 0 0 1-42.01 42.86l-44.19-.221 36.034-112z" fill="#edad94"/><path d="M215.955 18.058c-4.071 16.655-28.276 45.744-21.762 69.726 3.923 14.434 5.329 33.457-6.514 58.4-8.068 16.95 33.087 14.211 51.147-3.775s10.511-76.906 10.511-76.906z" fill="#2b2b2b"/><path d="m113.142 150.331 68.32 13.1-24.2 4 61.288-42.635a28.5 28.5 0 1 1 32.569 46.78l-61.288 42.635-1.925 1.333a23.909 23.909 0 0 1-22.205 2.59l-62.547-24.5z" fill="url(#h)"/><path d="M200.263 221.241c-.223-33.235 22.649-31.9 13.619-54.182-7.7-19.1-1.554-44.856 16.432-52.036a27.285 27.285 0 0 1 9.993-1.85c19.689-.148 21.021-.962 29.312-1.036a39.13 39.13 0 0 1 12.657 2.072c19.1 6.736 30.644 28.572 24.574 49.445a41.578 41.578 0 0 0-1.7 13.176c.222 7.55 18.8 18.5 19.023 41.3z" fill="url(#j)"/><path d="M282.424 114.209a25.381 25.381 0 0 1-15.024 20.133l-18.949 8.365a12.794 12.794 0 0 1-17.913-11.621l-.148-16.063a27.285 27.285 0 0 1 9.993-1.85c19.689-.148 21.021-.962 29.312-1.036a37.967 37.967 0 0 1 12.729 2.072z" fill="#fff"/><path d="m270.877 168.465-20.355 38.416 47.15 9.031 8.29-15.544zm-60.992 23.464a.95.95 0 0 1-.74-.3 1.144 1.144 0 0 1-.074-1.554 20.008 20.008 0 0 0 3.923-22.5 1.093 1.093 0 1 1 1.924-1.036c.074.148 6.736 13.323-4.219 25.018a1.188 1.188 0 0 1-.814.372z" fill="#2b2b2b"/><path d="m283.537 316.074-94.3-.31 37.6-39.971-3.4 232.569-55.293-.814c-.888-4.886-1.554-9.7-2.368-14.582l-2.076-14.582c-1.406-9.7-2.591-19.393-3.775-29.164-2.295-19.393-4.293-38.86-6.07-58.253-.814-9.7-1.7-19.393-2.442-29.089L150.3 347.3l-1.037-14.582q-2-29.089-3.405-58.179a36.765 36.765 0 0 1 28.942-37.75l8.216-1.776c7.624-1.629 15.248-3.035 22.872-4.293 7.624-1.185 15.322-2.221 22.946-2.961 7.7-.74 15.4-1.259 23.094-1.333h5.772c1.925.074 3.849.074 5.774.149s3.849.148 5.847.3l2.887.3 1.481.148 50.634-3.172 1.389 48.68a42.055 42.055 0 0 1-42.175 43.243z" fill="url(#i)"/><path d="m232.793 283.257 47.033 32.947h5.383l5.744-.455 5.554-1.341 6.303-2.649 4.727-2.971 2.874-1.796-2.146-36.195z" fill="#2b2b2b"/><path d="m310.411 306.992-133.761-42.82 45.45-14.952L84.274 423.536l-41.746-39.6c7.549-16.654 50.037-73.575 58.845-89.267 4.441-7.846 8.808-15.692 13.4-23.464l6.736-11.695 6.884-11.621q13.767-23.205 27.979-46.04a36.411 36.411 0 0 1 39.082-16.21l5.848 1.406c13.323 3.109 26.5 6.514 39.674 9.993 13.176 3.627 26.277 7.254 39.23 11.325 13.028 4 44.121 15.777 44.121 15.777z" fill="url(#k)"/><path d="m128.686 367.355 17.172-80.459 11.547 44.19zm56.032-113.768a1.188 1.188 0 0 1-.814-.37l-8.216-8.956a1.1 1.1 0 0 1 1.629-1.48l8.216 8.956a1.073 1.073 0 0 1-.074 1.554.951.951 0 0 1-.741.296z" fill="#2b2b2b"/><path d="m229.648 94.89 22.946-1.406a21.53 21.53 0 0 0 20.207-22.8l-2.072-34.641A34.46 34.46 0 0 0 234.237 3.7a34.46 34.46 0 0 0-32.346 36.49l1.924 31.754a24.429 24.429 0 0 0 25.833 22.946z" fill="#fdc068"/><path d="m250.151 133.084 28.868-12.657-7.032-65.285-36.639 2.22.592 66.47a10.138 10.138 0 0 0 14.211 9.252z" fill="#fdc068"/><g fill="#2b2b2b"><circle cx="206.332" cy="50.183" r="3.923"/><path d="M216.473 61.36a.927.927 0 0 1-.444-.075l-3.329-1.776a3.492 3.492 0 0 1-1.555-2.369 3.828 3.828 0 0 1 .667-2.812l4.515-6.144a.955.955 0 1 1 1.554 1.11l-4.515 6.144a1.65 1.65 0 0 0-.3 1.332 1.441 1.441 0 0 0 .666 1.037l3.183 1.7a1.041 1.041 0 0 1 .444 1.332 1.13 1.13 0 0 1-.886.521zm.37 13.767h-.592a7.429 7.429 0 0 1-4.96-3.035.965.965 0 0 1 1.629-1.036 5.645 5.645 0 0 0 3.553 2.221c1.554.148 3.183-.667 4.885-2.369a.942.942 0 0 1 1.332 1.332c-1.924 1.925-3.923 2.887-5.847 2.887z"/><circle cx="228.686" cy="48.998" r="3.923"/></g><path d="m294.193 159.657 67.579-7.032-15.692 52.258-60.917-40.119a28.485 28.485 0 1 1 31.31-47.594l60.918 40.118 2.442 1.629a27.7 27.7 0 0 1-18.061 50.7l-61.806-6.736z" fill="url(#l)"/><path d="M305.962 171.278a1.078 1.078 0 0 1-.962-.518l-10.511-16.21a1.1 1.1 0 0 1 .3-1.555 1.163 1.163 0 0 1 1.554.3L306.85 169.5a1.1 1.1 0 0 1-.3 1.554.84.84 0 0 1-.588.224z" fill="#2b2b2b"/><path d="M324.023 181.2a26.869 26.869 0 0 1-12.732 22.872l-11.325-1.259s-8.956-11.473-8.956-20.355c0-10.955 3.183-22.8 3.183-22.8l16.432-1.7a26.9 26.9 0 0 1 13.398 23.242z" fill="#fff"/><path d="M152.742 529.161h60.326a9.778 9.778 0 0 0 9.77-9.622l.222-12.88-55.884.518-15.692 12.214c-5.7 1.409-4.663 9.77 1.258 9.77zM1.521 375.941l59.807 56.477a9.763 9.763 0 0 0 13.694.074l9.252-8.956-41.746-39.6L7.516 368.1c-5.033-2.966-10.14 3.7-5.995 7.841zm224.13-371.28c-1.554 10.14-16.58 28.645-23.76 30.644.074 0 1.332-25.833 23.76-30.644z" fill="#2b2b2b"/><path d="M151.78 367.355c0-5.329-4-40.34-6.366-71.206a40.327 40.327 0 0 1 33.605-42.784 40.219 40.219 0 0 1 46.706 39.749l-.074 55.44z" fill="url(#m)"/><path d="m207.516 260.101 39.009 34.863-24.797.592z" fill="url(#n)"/><path d="M225.873 315.171a1.138 1.138 0 0 1-1.11-1.11v-14.137a1.11 1.11 0 1 1 2.22 0v14.137a1.138 1.138 0 0 1-1.11 1.11zM218.1 7.622c-12.065 9.7 10.511 26.8 25.019 37.453 17.986 13.25-4.219 67.876 23.908 95.855s41.3-10.362 70.318-9.548c6.958.148-14.138-7.994-21.836-43.3-5.625-25.758-31.976-28.2-34.567-39.3-.814-3.627-3.552-23.982-16.876-36.935C251.632-.224 234.311-5.406 218.1 7.622z" fill="#2b2b2b"/><path d="m103.149 193.706-18.727-7.328a20.619 20.619 0 0 1 11.4-39.452l17.395 3.331zm192.894 9.03-10.584-1.11c-11.251-1.184-19.837-11.1-18.8-22.428a20.6 20.6 0 0 1 18.431-18.653l9.1-.962a15.4 15.4 0 0 1 10.585 2.887l2.368 1.7a20.424 20.424 0 0 1 6.662 24.427l-2.147 4.959a15.136 15.136 0 0 1-15.615 9.18z" fill="#fdc068"/><path d="M156.073 169.576a1.055 1.055 0 0 1-.888-.444 1.149 1.149 0 0 1 .222-1.555l10.363-7.4a1.11 1.11 0 0 1 1.332 1.777l-10.363 7.4a1.194 1.194 0 0 1-.666.222zm156.699-10.733a1.122 1.122 0 0 1-1.111-.962 1.039 1.039 0 0 1 .963-1.185l35.9-3.775a1.038 1.038 0 0 1 1.184.963 1.087 1.087 0 0 1-.962 1.184l-35.9 3.775z" fill="#2b2b2b"/><path d="m113.142 150.331-9.993 43.375 12.065 4.737 9.771-45.818z" fill="#fff"/><path d="M144.6 294.372a1.138 1.138 0 0 1-1.11-1.11c-.074-20.059 15.174-37.6 35.455-40.933h.148a21.34 21.34 0 0 1 14.656 3.183l41.747 26.8a1.13 1.13 0 1 1-1.185 1.924l-41.746-26.8a19.465 19.465 0 0 0-13.25-2.886h-.148c-19.171 3.183-33.531 19.763-33.457 38.712a1.138 1.138 0 0 1-1.11 1.11zm89.193-197.335a1.116 1.116 0 0 1-1.11-.888 1.1 1.1 0 0 1 .888-1.259l10.881-1.85a1.089 1.089 0 1 1 .37 2.146l-10.881 1.851z" fill="#2b2b2b"/></svg></g><g transform="translate(367.0 77.0) rotate(0.0 78.5 67.0) scale(0.22227035720403712 0.22333333333333333)"><svg width="706.347" height="600" viewBox="0 0 706.347 600"><linearGradient id="o" gradientTransform="translate(0 480)" gradientUnits="userSpaceOnUse" x1="497.899" x2="497.899" y1="-105.303" y2="-393.105"><stop offset="0" stop-color="#9774ac"/><stop offset=".401" stop-color="#47a6d3"/><stop offset=".501" stop-color="#a7a7ae"/><stop offset=".591" stop-color="#e89ac0"/><stop offset="1" stop-color="#bfe7d1"/></linearGradient><linearGradient xmlns:xlink="http://www.w3.org/1999/xlink" id="p" gradientTransform="translate(0 792)" x1="293.004" x2="293.004" xlink:href="#o" y1="-115.832" y2="-698.758"/><linearGradient xmlns:xlink="http://www.w3.org/1999/xlink" id="q" gradientTransform="translate(0 792)" x1="294.404" x2="294.404" xlink:href="#o" y1="-115.832" y2="-698.757"/><linearGradient xmlns:xlink="http://www.w3.org/1999/xlink" id="r" gradientTransform="translate(0 792)" x1="479.925" x2="479.925" xlink:href="#o" y1="-339.476" y2="-27.144"/><linearGradient xmlns:xlink="http://www.w3.org/1999/xlink" id="s" gradientTransform="translate(0 792)" x1="509.979" x2="509.979" xlink:href="#o" y1="-33.774" y2="-616.699"/><linearGradient xmlns:xlink="http://www.w3.org/1999/xlink" id="t" x1="351.124" x2="351.124" xlink:href="#o" y1="200.565" y2="-255.779"/><linearGradient id="u" gradientUnits="userSpaceOnUse" x1="133.081" x2="133.081" y1="538.491" y2="156.028"><stop offset="0" stop-color="#9774ac"/><stop offset=".34" stop-color="#47a6d3"/><stop offset=".501" stop-color="#a7a7ae"/><stop offset=".591" stop-color="#e89ac0"/><stop offset="1" stop-color="#bfe7d1"/></linearGradient><linearGradient xmlns:xlink="http://www.w3.org/1999/xlink" id="v" x1="291.789" x2="291.789" xlink:href="#o" y1="29.836" y2="100.067"/><linearGradient xmlns:xlink="http://www.w3.org/1999/xlink" id="w" x1="148.506" x2="121.604" xlink:href="#o" y1="235.789" y2="-507.852"/><linearGradient id="x" gradientUnits="userSpaceOnUse" x1="433.848" x2="433.848" y1="207.836" y2="-28.185"><stop offset="0" stop-color="#9774ac"/><stop offset=".401" stop-color="#47a6d3"/><stop offset=".501" stop-color="#a7a7ae"/><stop offset=".591" stop-color="#e89ac0"/><stop offset=".902" stop-color="#bfe7d1"/></linearGradient><linearGradient xmlns:xlink="http://www.w3.org/1999/xlink" id="y" x1="267.848" x2="267.848" xlink:href="#o" y1="-80.459" y2="34.119"/><linearGradient xmlns:xlink="http://www.w3.org/1999/xlink" id="z" x1="225.639" x2="225.639" xlink:href="#o" y1="31.215" y2="-212.196"/><path d="m582.317 150.212-.442 5.967-.369 5.156-6.335 87.512-17.826-11.786-9.208-6.114-131.857-87-2.8-1.842V1.413h65.266a152.215 152.215 0 0 1 103.5 138.044c.144 3.61.218 7.143.071 10.755z" fill="#fdc068"/><path d="m580.328 177.541-2.358 32.633a17.253 17.253 0 0 1 2.358-32.633zm-18.711 35.138-20.773-26.3a4.929 4.929 0 1 0-7.734 6.114l20.773 26.3a6.847 6.847 0 0 1-1.179 9.65l-4.641 2.578 9.208 6.114.516-.295.442-.294a16.711 16.711 0 0 0 3.388-23.867zm-58.562-20.626a18.106 18.106 0 0 1-1.915 7.956l-28.582-18.858a17.216 17.216 0 0 1 30.5 10.9zm-34.475-33.075a5.039 5.039 0 0 1-2.209-9.576l36.61-17.679a5.024 5.024 0 1 1 4.346 9.06l-36.61 17.68a4.364 4.364 0 0 1-2.137.515zm108.801 4.494a4.985 4.985 0 0 1-3.757-1.7l-11.859-13.333a5.062 5.062 0 1 1 7.587-6.7l11.86 13.333a5.039 5.039 0 0 1-.442 7.145 5.1 5.1 0 0 1-3.389 1.255z" fill="#2b2b2b"/><path d="M582.39 139.531h-.147c-42.43-1.326-103.423-42.577-134.436-89.8-4.935 27.844-14.143 62.1-31.6 94.289l-2.8-1.842V1.486H489.5c94.069 33.591 92.89 138.045 92.89 138.045z" fill="url(#o)"/><path d="M699.441 309.988c-3.757 4.346-7.44 8.839-11.123 13.48l-24.972-16.5c4.42-5.6 8.913-11.05 13.407-16.354a14.917 14.917 0 1 1 22.688 19.374z" fill="#edc16c"/><path d="M341.217 71.761c-7 39.778-22.91 92.668-58.783 133.92a71.413 71.413 0 0 0-17.532 44.64l64.9 1.915.516 23.646 33.59-53.995a17.282 17.282 0 0 1 15.4-25.046h.147l21.068-33.885-36.243 17.606a4.85 4.85 0 0 1-2.21.515 5.039 5.039 0 0 1-2.209-9.576l36.537-17.679a5.033 5.033 0 0 1 6.7 2.357 5.655 5.655 0 0 1 .515 1.915l9.871-15.837v-2.431c-27.775-16.795-54.809-41.473-72.267-68.065z" fill="#fdc068"/><path d="M264.9 250.321a69.559 69.559 0 0 0 4.788 27.7c7 17.974 15.027 39.41 21.951 60.109l38.674-62.245-.516-23.646z" fill="#fdc068"/><path d="M362.063 214.078a17.411 17.411 0 0 0 1.842 7.809l15.543-25.046h-.148a17.26 17.26 0 0 0-17.237 17.237zm34.328-60.33-36.537 17.679a5.035 5.035 0 0 0-2.358 6.7 5.126 5.126 0 0 0 4.567 2.873 4.85 4.85 0 0 0 2.21-.515l36.316-17.532 3.094-4.935a6.185 6.185 0 0 0-.515-1.916 5.141 5.141 0 0 0-6.777-2.354z" fill="#2b2b2b"/><path d="M346.815 14.009c-90.532-8.324-141.8 33.811-164.269 84.05a156.684 156.684 0 0 0-8.618 24.751c-.442 1.1-.958 2.283-1.4 3.388l2.8 8.324a152.08 152.08 0 0 1 238.153-89.5v-6.115c-17.089-11.491-38.894-20.184-66.665-23.719z" fill="url(#p)"/><path d="m175.327 134.448 84.934 254.065 31.38-50.386c-6.924-20.7-14.88-42.062-21.951-60.109a72.261 72.261 0 0 1-4.788-27.7 71.162 71.162 0 0 1 17.531-44.64c35.874-41.252 51.786-94.142 58.784-133.92 17.458 26.592 44.492 51.269 72.263 67.991V44.874a152.064 152.064 0 0 0-238.153 89.574z" fill="#fdc068"/><path d="m175.327 134.448 84.934 254.065 31.38-50.386c-6.924-20.7-14.88-42.062-21.951-60.109a72.261 72.261 0 0 1-4.788-27.7 71.162 71.162 0 0 1 17.531-44.64c35.874-41.252 51.786-94.142 58.784-133.92 17.458 26.592 44.492 51.269 72.263 67.991V44.874a152.064 152.064 0 0 0-238.153 89.574z" fill="url(#q)"/><path d="M524.27 477.793a107.656 107.656 0 0 1-67.476 21.215l-21.215-.663.884 39.852 1.326 60.33h78.452c-9.871-38.305-2.947-79.704 8.029-120.734z" fill="url(#r)"/><path d="M562.869 298.349a17.193 17.193 0 0 0 10.608 15.911l2.357-32.632a17.306 17.306 0 0 0-12.965 16.721z" fill="#2b2b2b"/><path d="m437.053 564.863-32.339-33.443c-5.819 22.614-15.395 44.934-27.255 67.107h60.4l-1.326-60.33zm128.026-322.719c-36.021-6.851-80.808-36.684-110.2-72.706l-12.891-8.471c-7.587 38.821-23.72 87.954-57.457 126.775A71.384 71.384 0 0 0 367 332.308a69.692 69.692 0 0 0 4.788 27.771c17.09 43.829 40 107.843 38.894 132.446-.073 1.7-.147 3.315-.294 5.009l25.192.811 21.215.663a107.677 107.677 0 0 0 110.863-104.455l5.819-80.293a17.253 17.253 0 0 1 2.357-32.633l1.179-16.2a4.4 4.4 0 0 1-.811.883 4.791 4.791 0 0 1-3.314 1.253 4.986 4.986 0 0 1-3.757-1.694l-11.86-13.333a5.062 5.062 0 1 1 7.587-6.7l11.86 13.333a9.645 9.645 0 0 1 .737 1.1l.442-5.967c0-1.252.073-2.43.073-3.683zm-83.755 71.232a17.237 17.237 0 1 1 17.237-17.237 17.259 17.259 0 0 1-17.237 17.237zm21.584-68.433L466.3 262.622a4.841 4.841 0 0 1-2.21.516 5.039 5.039 0 0 1-2.21-9.576l36.611-17.679a5.041 5.041 0 0 1 4.42 9.06zm32.559 157.345a5.105 5.105 0 0 1-4.936 4.051 4.9 4.9 0 0 1-1.031-.073 65.438 65.438 0 0 0-16.5-1.253 5.052 5.052 0 1 1-.515-10.091 78.478 78.478 0 0 1 19 1.4 5 5 0 0 1 3.982 5.966zm21.657-85.523a16.712 16.712 0 0 1-3.389 23.867l-.442.294L539 348.882a4.491 4.491 0 0 1-2.358.589 4.86 4.86 0 0 1-4.272-2.5 4.954 4.954 0 0 1 1.915-6.7l14-7.808a7.01 7.01 0 0 0 2.578-4.42 6.8 6.8 0 0 0-1.4-5.23l-20.773-26.3a4.929 4.929 0 0 1 7.734-6.114z" fill="#fdc068"/><path d="M549.463 322.805a6.847 6.847 0 0 1-1.179 9.65l-14 7.808a4.935 4.935 0 0 0-1.915 6.7 4.86 4.86 0 0 0 4.272 2.5 5.321 5.321 0 0 0 2.358-.589l14.29-7.956.442-.294a16.375 16.375 0 0 0 6.777-11.2 16.636 16.636 0 0 0-3.388-12.67l-20.773-26.3a4.93 4.93 0 0 0-7.735 6.114zm-36.39 82.135a65.391 65.391 0 0 1 16.5 1.252 4.839 4.839 0 0 0 1.031.074 5.066 5.066 0 0 0 1.031-10.019 74.976 74.976 0 0 0-19-1.4 5.036 5.036 0 0 0-4.788 5.3 4.971 4.971 0 0 0 5.226 4.793zM404.714 531.42l32.339 33.443-.59-26.666-.884-39.852-25.192-.811a197.292 197.292 0 0 1-5.673 33.886z" fill="#2b2b2b"/><circle cx="481.346" cy="296.138" fill="#2b2b2b" r="17.237" transform="matrix(.98708599 -.1601913 .1601913 .98708599 -41.224 80.935)"/><path d="M464.087 263.064a4.853 4.853 0 0 0 2.21-.515l36.611-17.679a5.025 5.025 0 1 0-4.347-9.061l-36.61 17.679a5.033 5.033 0 0 0-2.357 6.7 4.892 4.892 0 0 0 4.493 2.876zM564.785 245.9a5.062 5.062 0 0 0-7.588 6.7l11.86 13.333a5.1 5.1 0 0 0 3.757 1.694 5.163 5.163 0 0 0 3.315-1.252 8.8 8.8 0 0 0 .81-.884 5.167 5.167 0 0 0 .368-5.156 9.59 9.59 0 0 0-.736-1.105z" fill="#2b2b2b"/><path d="m565.079 242.144-110.2-72.706c29.392 36.022 74.105 65.855 110.2 72.706z" fill="#fdc068"/><path d="m565.079 242.144-110.2-72.706c29.392 36.022 74.105 65.855 110.2 72.706z" fill="url(#s)"/><path d="m404.714 531.42-33.958-35.138 39.631 1.252c.147-1.694.221-3.314.294-5.009 1.105-24.6-21.8-88.617-38.894-132.446A69.914 69.914 0 0 1 367 332.308a71.384 71.384 0 0 1 17.532-44.566c33.738-38.821 49.87-87.954 57.457-126.775l-28.509-18.784L267.7 376.579l-2.726 35.359 39.778 186.589h72.706c11.861-22.173 21.442-44.493 27.256-67.107z" fill="#fdc068"/><path d="m370.756 496.282 33.958 35.138a197.292 197.292 0 0 0 5.673-33.886z" fill="#2b2b2b"/><path d="M626.441 385.714a14.883 14.883 0 0 0-17.385 24.161c.148.148 14.438 11.492 12.449 39.41l24.825-35.358c-7.145-18.711-18.93-27.55-19.889-28.213z" fill="#edc16c"/><path d="M371.787 360.079c17.09 43.829 40 107.843 38.894 132.446-.073 1.7-.147 3.315-.294 5.009a190.457 190.457 0 0 1-5.673 33.886c-5.819 22.614-15.395 44.934-27.255 67.107h-72.706l-39.778-186.589-4.714-21.952.368-.442-.368-1.031 7.44-11.934 145.779-234.4 28.508 18.784c-7.587 38.821-23.72 87.954-57.457 126.775A71.384 71.384 0 0 0 367 332.308a69.914 69.914 0 0 0 4.787 27.771z" fill="url(#t)"/><path d="M175.032 221.15a14.985 14.985 0 0 1-3.535 4.272 150.16 150.16 0 0 0-10.9 10.461 218.052 218.052 0 0 0-23.573 29.539c-22.69 33.811-34.697 70.422-35.724 108.878a14.924 14.924 0 0 1-14.954 14.512H85.9a3.571 3.571 0 0 1-.884-.074 15.072 15.072 0 0 1-13.7-15.322 227.1 227.1 0 0 1 8.913-56.942 244.38 244.38 0 0 1 32.191-68.359.733.733 0 0 1 .294-.369 247.966 247.966 0 0 1 31.676-38.157l12.08 4.567z" fill="#cae6c4"/><path d="M86.489 404.2a14.872 14.872 0 0 1-4.272 11.934 15.249 15.249 0 0 1-9.208 4.346 9.964 9.964 0 0 1-1.473.073 14.594 14.594 0 0 1-6.925-1.694 14.987 14.987 0 0 1-7.955-11.786c-3.536-37.421-5.893-73.442-6.925-107.769q-1.435-46.188.221-88.1c.148-4.419.369-8.765.59-12.964 0-.516.073-1.032.073-1.547.369-7.661.884-14.954 1.4-21.952l7.587 2.873 21.584 8.177q-.554 7.623-.884 15.911c-1.032 21.215-1.547 45.155-1.253 71.969.148 13.554.59 27.918 1.179 42.946.958 22.393 2.5 46.407 4.714 72.19.59 5.01 1.032 10.166 1.547 15.393z" fill="#cae6c4"/><path d="M89.067 188.664a44.324 44.324 0 0 0-8.692 12.965c-.368.737-.663 1.473-1.031 2.284a14.911 14.911 0 0 1-13.775 9.208 14.6 14.6 0 0 1-5.746-1.179 14.911 14.911 0 0 1-9.208-13.775 10.831 10.831 0 0 1 .074-1.547 13.718 13.718 0 0 1 1.1-4.125 80.476 80.476 0 0 1 7.956-14.88l21.583 8.177z" fill="#cae6c4"/><path d="M260.261 388.513 82.217 416.137l-17.532 2.725L5.9 428c3.9-43.166 8.545-90.311 43.9-128.689a143.728 143.728 0 0 1 15.7-14.737 1232.83 1232.83 0 0 1 13.628-10.9c11.565-9.134 22.762-17.458 33.443-25.414 15.764-11.786 30.5-22.762 43.977-34.032l18.49 7 33.516 12.67z" fill="url(#u)"/><path d="M623.421 543.795c-.074.074-.074.147-.148.221a10.865 10.865 0 0 0-.589.958c-.295.442-.589.957-.884 1.4a422.411 422.411 0 0 0-26.887 52.08H562.5a450.224 450.224 0 0 1 34.475-68.728c.294-.515.662-1.031.957-1.62a.072.072 0 0 1 .074-.074c.073-.147.221-.295.294-.442s.148-.221.221-.368c.148-.221.369-.442.516-.663.147-.148.295-.369.442-.516.221-.3.516-.516.737-.81a4.254 4.254 0 0 1 .589-.516l.147-.147a3.679 3.679 0 0 0 .59-.516l.073-.073c.074-.074.221-.148.295-.221a14.9 14.9 0 0 1 16.574-.442 15.06 15.06 0 0 1 4.937 20.477z" fill="#cae6c4"/><path d="M610.677 551.014a14.608 14.608 0 0 1-7.882-2.284 14.842 14.842 0 0 1-4.715-20.552A623.256 623.256 0 0 1 652 454.073a14.893 14.893 0 1 1 22.688 19.3 591.964 591.964 0 0 0-51.269 70.569 15.031 15.031 0 0 1-12.742 7.072z" fill="#edc16c"/><path d="M631.082 507.479a127.538 127.538 0 0 1-6.262 33.3 14.138 14.138 0 0 1-1.031 2.431c-.368.663-.737 1.252-1.105 1.841a16.229 16.229 0 0 1-2.136 2.357 15.023 15.023 0 0 1-9.871 3.684 14.42 14.42 0 0 1-4.567-.737 14.82 14.82 0 0 1-10.092-11.565v-.074c-.074-.589-.147-1.178-.221-1.694v-2.5c0-.147.074-.368.074-.589.147-.737.294-1.547.515-2.283l.221-.663v-.087c.147-.368.221-.737.368-1.105 6.63-21.952 4.568-37.126.737-46.776l18.858-26.887a72.133 72.133 0 0 1 12.23 26.891 83.728 83.728 0 0 1 2.282 24.456z" fill="#edc16c"/><path d="M610.677 551.014a14.882 14.882 0 0 1-8.913-26.813c55.468-41.4 94.878-14.659 96.5-13.555L681.173 535.1a.911.911 0 0 0 .221.147c-.958-.663-24.383-15.1-61.8 12.817a14.867 14.867 0 0 1-8.917 2.95z" fill="#edc16c"/><path d="m302.691 589.024 2.062 9.503h-25.929l.663-10.608 4.788-79.63.221-4.567.958 4.42z" fill="url(#v)"/><path d="m302.691 589.024 2.062 9.5H48.847c22.541-35.432 57.458-62.909 100.7-74.621a168.527 168.527 0 0 1 22.467-4.494c2.358-.368 4.862-.663 7.293-.883l101.361-9.871 3.683-.369 1.252-.147z" fill="#f9d5ff"/><path d="m260.261 389.986 4.935 22.983-4.051-.147a94.921 94.921 0 0 1-50.828-16.575l50.018-7.734.368 1.031z" fill="#fdc068"/><path d="m285.454 508.142 17.237 80.809a44.921 44.921 0 0 1-23.278-1.105 57.804 57.804 0 0 1-3.241-1.179l-34.18-13.849-93.4-37.936.884-11.05 9.282-119.555 51.491-7.956 50.017-7.734.368 1.031-.368.442 4.935 22.983 18.932 88.69.663-1.326-.221 3.389z" fill="#fdc068"/><path d="m265.2 412.969 18.932 88.691c-1.1 2.357-2.284 4.64-3.536 7-10.681 20.773-23.572 41.4-37.421 62.1-.368.736-.737 1.4-1.1 2.062a77.957 77.957 0 0 1-10.534 14.954c-2.431 3.536-4.862 7.145-7.366 10.681H.893V428.733l157.86-24.456 51.491-7.956 50.017-7.734.368 1.031-.368.442z" fill="url(#w)"/><path d="M481.619 1.486 413.48 95.039V1.486z" fill="#fdc068"/><path d="M454.216 1.486C445.3 21.3 433.738 40.9 418.489 58.428a84.595 84.595 0 0 0-5.009 6.482V1.486z" fill="url(#x)"/><path d="m293.188 544.237-1.399-1.915-48.397-65.192-.884-1.179 3.904-64.676 1.105-18.49.074-1.399 13.038-1.842.81 3.683v.074l3.831 18.342 5.156 24.53 22.026 104.602z" fill="url(#y)"/><path d="m260.629 389.544.81 3.683-13.922-.442-8.324-.221 8.398-1.178z" fill="#fdc068"/><path d="m292.452 540.775-.663 1.547L186.082 400l74.547-10.46z" fill="#fdc068"/><path d="m270.426 436.173-8.545-8.84-.442-34.032 3.831 18.342z" fill="#2b2b2b"/><path d="M265.27 411.643c-.884 5.23-2.063 10.46-3.389 15.69a268.716 268.716 0 0 1-18.563 49.8L186.008 400l74.548-10.46z" fill="url(#z)"/><g fill="#ffd8ff"><path d="m1.261 431.311-.737-5.083 256.717-38.746L128.4 2.3l4.861-1.62 129.8 388.058a2.668 2.668 0 0 1-.221 2.136 2.494 2.494 0 0 1-1.84 1.175z"/><path d="M302.249 599.042 258.125 390.06a2.876 2.876 0 0 1 .294-1.915L410.9 141.373V1.413h5.157v140.7a2.757 2.757 0 0 1-.369 1.326L263.355 389.986l43.9 207.951z"/><path d="m518.893 600-4.2-2.947L700.1 334.223l-288.019-189.83 2.873-4.273 290.233 191.3a2.491 2.491 0 0 1 1.105 1.694 2.451 2.451 0 0 1-.442 1.989zM411.369 93.538 479.494.002l4.168 3.036-68.125 93.536zM184.098 401.546l4.176-3.026 108.373 149.557-4.176 3.026z"/><path d="m589.185 260.823.297-5.148 113.612 6.555-.297 5.148zM0 157.66l1.824-4.825 207.686 78.532-1.824 4.824z"/></g></svg></g><g transform="translate(379.0 234.0) rotate(0.0 -141.0 239.0) scale(-2.140108826810555 2.1335380577662124)"><svg width="131.769" height="224.041" viewBox="716.405 1186.348 131.769 224.041"><linearGradient id="A"><stop offset="0" stop-color="#ffe0c2"/><stop offset=".401" stop-color="#7aaefc"/><stop offset=".591" stop-color="#b8c1fc"/><stop offset="1" stop-color="#d2d4d4"/></linearGradient><linearGradient xmlns:xlink="http://www.w3.org/1999/xlink" id="C" gradientTransform="matrix(.0597 -.004 .004 .0597 912.4365 1400.4803)" gradientUnits="userSpaceOnUse" x1="-1882.489" x2="-2048.073" xlink:href="#A" y1="-1396.721" y2="-3903.049"/><linearGradient id="B"><stop offset="0" stop-color="#6b9c83"/><stop offset=".401" stop-color="#a6a6a4"/><stop offset=".501" stop-color="#9f9fc8"/><stop offset=".591" stop-color="#9fccec"/><stop offset="1" stop-color="#ffe7b0"/></linearGradient><linearGradient xmlns:xlink="http://www.w3.org/1999/xlink" id="D" gradientTransform="matrix(.0556 .0221 -.0221 .0556 928.1948 1387.6428)" gradientUnits="userSpaceOnUse" x1="-3670.892" x2="-3670.892" xlink:href="#B" y1="304.464" y2="486.464"/><linearGradient xmlns:xlink="http://www.w3.org/1999/xlink" id="E" gradientTransform="matrix(.0594 -.0073 .0073 .0594 913.5552 1403.6868)" gradientUnits="userSpaceOnUse" x1="-1525.986" x2="-1525.986" xlink:href="#B" y1="927.306" y2="1109.306"/><linearGradient xmlns:xlink="http://www.w3.org/1999/xlink" id="F" gradientTransform="matrix(-.0599 0 0 .0599 649.5554 1398.7471)" gradientUnits="userSpaceOnUse" x1="-2216.614" x2="-2216.614" xlink:href="#B" y1="-2336.635" y2="-239.829"/><linearGradient xmlns:xlink="http://www.w3.org/1999/xlink" id="G" gradientUnits="userSpaceOnUse" x1="782.419" x2="782.419" xlink:href="#B" y1="1449.454" y2="1454.794"/><linearGradient xmlns:xlink="http://www.w3.org/1999/xlink" id="H" gradientUnits="userSpaceOnUse" x1="792.154" x2="781.172" xlink:href="#A" y1="1345.897" y2="1179.672"/><linearGradient xmlns:xlink="http://www.w3.org/1999/xlink" id="I" gradientTransform="matrix(-.0549 -.0239 -.0239 .0549 994.7212 1414.7388)" gradientUnits="userSpaceOnUse" x1="4669.43" x2="4503.846" xlink:href="#A" y1="378.301" y2="-2128.027"/><linearGradient xmlns:xlink="http://www.w3.org/1999/xlink" id="J" gradientUnits="userSpaceOnUse" x1="789.156" x2="789.156" xlink:href="#B" y1="1257.333" y2="1344"/><path d="M846.492 1290.405c-5.136-22.765-27.72-27.18-31.204-37.631s5.526-25.798-5.616-39.103c-.931-1.111-1.802-2.132-2.613-3.093-3.424-4.024-5.856-8.709-8.409-13.304-5.676-10.301-13.124-10.091-13.124-10.091s-9.851 1.051-13.335 17.569c-2.463 3.424-4.865 6.547-8.319 11.262-10.211 14.025-.18 22.254-2.973 32.916-2.763 10.662-22.525 16.578-26.128 39.643-4.775 30.723 20.663 54.029 43.788 48.082 10.992-2.823 13.335-3.694 24.507-1.592 23.544 4.355 50.273-14.325 43.426-44.658z" fill="url(#C)"/><path d="m797.865 1341.448-4.406-10.761 29.541-3.609c6.558 15.085 14.926 38.48 23.829 64.329l-17.907 9.633c-11.521-18.375-21.146-38.347-31.057-59.592zM752 1335.667h30.333l-10 67.666H752z" fill="#ea7068"/><path d="m752.478 1337.064 28.421 8.336 2.5-15zm43.539 0 34.97 10.262-6.177-16.639zm16.958-79.876c6.757 17.029 14.386 36.52 16.428 43.007 4.024 12.644 1.862 17.149-1.982 19.762s-17.239-59.465-14.446-62.769z" fill="#2b2b2b"/><path d="m810.062 1308.965 3.844 8.86a8.091 8.091 0 0 0 10.632 4.205c3.604-1.562 5.496-5.466 4.685-9.16l-2.192-10.001z" fill="#ea7068"/><path d="m736.602 1233.733 6.277 10.331 17.899-12.374c4.295-4.445 11.382-4.535 15.797-.24 4.445 4.295 4.535 11.382.24 15.797l-33.276 24.296c-4.685 3.424-11.382 1.171-13.034-4.415l-10.541-26.519z" fill="url(#D)"/><path d="m719.964 1240.67-3.123-9.16c-1.442-4.235.811-8.83 5.045-10.271a8.118 8.118 0 0 1 9.641 3.634l5.076 8.86" fill="#ea7068"/><circle cx="793.784" cy="1203.88" fill="#ea7068" r="4.415"/><path d="m827.03 1302.898-20.482-66.613c-2.313-5.706-10.361-9.4-16.068-7.088-5.706 2.313-8.469 8.83-6.157 14.566l25.738 65.231z" fill="url(#E)"/><path d="M798.409 1258.69c2.733 7.899-1.261 18.65-10.151 18.29-6.847-.3-7.328-.03-10.241-.15-9.13-.39-15.046-9.971-12.043-18.59z" fill="url(#F)"/><path d="M765.69 1258.912s.444-2.425.504-5.038-5.566-6.957-5.236-14.916c.27-6.127 7.058-14.986 17.689-14.626l8.589.571c9.37.33 16.608 8.679 16.848 15.197h.03c0 .18-.03.36-.03.541v.18c-.781 10.842-8.192 10.645-5.549 18.394z" fill="url(#G)"/><path d="m775.786 1228.099 6.26 14.411 6.844-13.696z" fill="#fff"/><circle cx="773.572" cy="1203.069" fill="#ea7068" r="4.415"/><path d="m777.777 1231.15-7.568-4.985s3.153-1.982 8.409-1.802z" fill="#2b2b2b"/><path d="m789.489 1225.924-.18-20.723-12.494-.45-1.382 20.693c-.33 3.904 2.733 7.238 6.637 7.328h.541c3.785.06 6.909-3.034 6.878-6.848z" fill="#ea7068"/><path d="m778.648 1216.554 10.803 6.253.038-8.385z" fill="#2b2b2b"/><path d="M782.822 1217.425a10.715 10.715 0 0 0 10.662-9.61l1.021-9.55c0-6.487-5.286-11.713-11.743-11.713-6.487 0-11.713 5.286-11.713 11.743l1.051 9.55c.631 5.466 5.226 9.58 10.722 9.58z" fill="#ea7068"/><path d="M782.462 1205.352c-.12 0-.27-.06-.33-.21-.09-.18-.03-.42.15-.51l1.081-.601a.57.57 0 0 0 .21-.33c.03-.15 0-.3-.09-.421-.661-.901-.991-1.982-.871-3.033l.03-.33c.03-.21.21-.36.42-.33s.36.21.33.42l-.03.33c-.09.871.18 1.772.751 2.523.21.3.3.631.24.991-.06.33-.24.631-.541.841l-.03.03-1.111.601c-.089-.001-.149.029-.209.029z" fill="#2b2b2b"/><path d="M784.684 1208.475c-.3 3.003-3.604 2.162-3.604 0z" fill="#fff"/><path d="M798.409 1259.11c-.18 0-.33-.12-.36-.3-.631-2.913-.901-5.886 1.532-7.989.15-.15.39-.12.541.03.15.15.12.39-.03.541-1.742 1.502-2.102 3.544-1.291 7.268.03.21-.09.421-.3.451l-.092-.001z" fill="#2b2b2b"/><circle cx="788.198" cy="1200.937" fill="#2b2b2b" r="1.171"/><circle cx="778.017" cy="1200.937" fill="#2b2b2b" r="1.231"/><path d="M793.784 1190.936s-5.586 5.496-22.735 10.031c-1.051-4.235 1.07-10.463 5.147-12.716 5.27-2.913 10.121-2.825 17.588 2.685z" fill="url(#H)"/><path d="M789.219 1189.254s-.09 10.211 6.007 23.155c8.889-4.925 1.952-22.945-6.007-23.155z" fill="url(#I)"/><path d="M766.004 1258.6h-.03c-.21-.03-.36-.21-.33-.42.42-3.844-.24-6.847-2.162-9.641a.415.415 0 0 1 .09-.541c.18-.12.42-.06.541.09 2.042 2.973 2.733 6.127 2.282 10.181a.417.417 0 0 1-.391.331zm-19.521-7.118c-.15 0-.27-.06-.33-.21l-3.604-6.998c-.09-.18-.03-.421.15-.511s.42-.03.511.15l3.604 6.998c.09.18.03.42-.15.511-.061.03-.121.06-.181.06z" fill="#2b2b2b"/><path d="M751.355 1337h76.02l-28.726-76.838-6.467 5.55-26.178-7.472c-2.463 5.106-15.647 48.082-15.046 61.477.142 3.192.277 9.503.397 17.283z" fill="url(#J)"/><g fill="#2b2b2b"><path d="m782.783 1264.747 5.583 14.399h17.354l1.764 4.114h-21.139zm-3.894 18.749h-14.811l12.695-3.123 4.635-10.58zm-42.227 126.289h32.555a3.108 3.108 0 0 0 3.123-3.063l.09-4.115-20.572.21-15.587 3.844c-1.802.451-1.471 3.124.391 3.124zm79.047.49 30.443-11.535a3.108 3.108 0 0 0 1.835-3.971l-1.374-3.88-19.163 7.486-13.214 9.118c-1.524 1.059-.268 3.442 1.473 2.782zm11.154-72.298a.5.5 0 0 1-.47-.328l-12.247-33.351a.5.5 0 0 1 .94-.344l12.247 33.351a.5.5 0 0 1-.47.672z"/></g></svg></g><g transform="translate(723.0 100.0) rotate(0.0 57.5 57.5) scale(1.055065230554689 1.055065230554689)"><svg width="108.998" height="108.998" viewBox="0 0 108.998 108.998"><circle cx="54.499" cy="54.601" fill="#fff" r="53.374"/><path d="M54.5 109A54.5 54.5 0 1 1 109 54.5 54.548 54.548 0 0 1 54.5 109zm0-106.646A52.25 52.25 0 1 0 106.748 54.6 52.278 52.278 0 0 0 54.5 2.352z" fill="#f9d5ff"/><path d="M54.499 17.587v37.014l24.744 18.201" fill="#fff"/><path d="M79.243 73.926a2.6 2.6 0 0 1-.715-.2l-24.745-18.1a1 1 0 0 1-.409-.921V17.689a1.125 1.125 0 0 1 2.25 0v36.4l24.335 17.792a1.036 1.036 0 0 1 .2 1.534 1.075 1.075 0 0 1-.916.511z" fill="#f9d5ff"/></svg></g></svg>