<svg xmlns="http://www.w3.org/2000/svg" viewBox="0 0 1500 1500" width="1500" height="1500"><g transform="translate(31.0 227.0) rotate(0.0 719.5 518.5) scale(0.9997040486971891 0.9996568198381269)"><svg width="1439.426" height="1037.356" viewBox="0 0 1439.426 1037.356"><linearGradient id="a" gradientTransform="matrix(-3.567 0 -0 -3.568 -8337.058 13325.675)" gradientUnits="userSpaceOnUse" x1="-2671.919" x2="-2671.919" y1="3507.434" y2="3446.598"><stop offset="0" stop-color="#c0ddfc"/><stop offset=".996" stop-color="#fff"/></linearGradient><linearGradient xmlns:xlink="http://www.w3.org/1999/xlink" id="b" gradientTransform="matrix(-3.567 0 -0 -3.568 8483.317 13325.675)" x1="2264.948" x2="2264.948" xlink:href="#a" y1="3539.562" y2="3447.53"/><g fill="#c4ecfe" opacity=".3"><path d="M85.928 4.157v1023.474h1270.708V4.157zM81.772 0h1279.02v1031.788H81.772z"/><path d="M1047.503 0h3.888v1031.788h-3.888zM884.761 0h3.888v1031.788h-3.888z"/><path d="M1047.503 0h3.888v1031.788h-3.888zm162.745 0h3.888v1031.788h-3.888zM722.019 0h3.888v1031.788h-3.888zM559.276 0h3.888v1031.788h-3.888zM398.544 0h3.888v1031.788h-3.888zM237.811 0h3.888v1031.788h-3.888z"/></g><path d="M948.619 1036.025c108.579 0 158.086-159.283 285.923-143.725 38.378 4.71 81.183-74.068 98.732-103.761 29.107-49.241 106.152-29.41 106.152 27.545v219.941z" fill="url(#a)"/><path d="M807.906 1037.314c-267.947 0-363.588-345.482-505.166-306.31-82.389 22.751-136.761-36.311-187.97-89.8C73.2 597.814 0 627.194 0 687.312v350z" fill="url(#b)"/><path d="M1210.247 259.635c-18.191 0-36.14-25.274-58.971-57.384-27.716-39.072-60.943-87.57-99.891-90.375l.007-12.282c44.687 3.3 80.594 54.429 109.774 95.575 18.187 25.639 36.994 52.256 48.96 52.256v12.208z" fill="#f9d5ff"/><path d="M121.305 1030.172h1201.378v7.184H121.305z" fill="#2b2b2b"/><path d="M723.893 300.3a155.953 155.953 0 0 1-31.883-3.567c-72.525-16.018-128.881-84.788-178.6-145.462-15.994-19.518-31.1-37.953-46.3-54.309a87.8 87.8 0 0 0-31.116-22.272 85.2 85.2 0 0 0-33.56-6.255l-.136-13a98.194 98.194 0 0 1 38.653 7.236 100.251 100.251 0 0 1 35.683 25.441c15.471 16.653 30.7 35.24 46.829 54.918 25.049 30.567 50.951 62.175 79.287 88.074 31.651 28.927 61.766 46.243 92.064 52.934a142.977 142.977 0 0 0 29.219 3.262z" fill="#f9d5ff"/><g fill="#bfd9ff"><circle cx="151.744" cy="234.335" r="7.205"/><circle cx="600.996" cy="55.934" r="7.205"/><circle cx="833.166" cy="215.146" r="7.205"/><circle cx="1306.876" cy="310.633" r="7.205"/></g></svg></g><g transform="translate(531.0 607.0) rotate(0.0 -239.0 324.5) scale(-1.4131559497413155 1.413576872227026)"><svg width="338.25" height="459.119" viewBox="0 0 338.25 459.119"><g fill="#f9d5ff"><path d="M148.929 216.343h7.384v238.346h-7.384z"/><path d="M254.738 455.427H50.505l22.815-4.8a368.7 368.7 0 0 1 76.348-7.975h5.907a368.687 368.687 0 0 1 76.347 7.975z"/><path d="M254.738 459.119H50.505a3.689 3.689 0 0 1-3.692-3.323 3.649 3.649 0 0 1 2.879-3.987l22.816-4.8a374.764 374.764 0 0 1 77.086-8.049h5.906a374.236 374.236 0 0 1 77.086 8.049l22.816 4.8a3.65 3.65 0 0 1 2.879 3.987 3.453 3.453 0 0 1-3.543 3.323zm-167.684-7.384h131.061a369.561 369.561 0 0 0-62.614-5.39h-5.907a369.99 369.99 0 0 0-62.54 5.39z"/></g><path d="m276.741 237.9-193.3-21.56 58.7-179.794A47.687 47.687 0 0 1 187.4 3.692h99.533a47.6 47.6 0 0 1 45.262 62.392z" fill="#fff"/><path d="M276.741 241.6h-.441L83 220.039a3.621 3.621 0 0 1-2.658-1.7 3.687 3.687 0 0 1-.369-3.175l58.619-179.796A51.248 51.248 0 0 1 187.4 0h99.533a50.587 50.587 0 0 1 41.5 21.191 50.844 50.844 0 0 1 7.236 46.075l-55.457 171.818a3.66 3.66 0 0 1-3.471 2.516zM88.383 213.168l185.774 20.748 54.492-168.939a43.877 43.877 0 0 0-41.718-57.519H187.4a43.77 43.77 0 0 0-41.717 30.347z" fill="#f9d5ff"/><path d="M20.453 249.865h240.266a16.859 16.859 0 0 0 16.1-11.962 16.755 16.755 0 0 0-16.1-21.56H20.453A16.8 16.8 0 0 0 3.692 233.1a16.7 16.7 0 0 0 16.761 16.765z" fill="#fff"/><path d="M260.719 253.556H20.453a20.453 20.453 0 1 1 0-40.9h240.266a20.452 20.452 0 0 1 19.64 26.286 20.647 20.647 0 0 1-19.64 14.614zM20.453 220.034a13.07 13.07 0 0 0 0 26.139h240.266a13.069 13.069 0 0 0 10.558-20.822 12.977 12.977 0 0 0-10.558-5.317z" fill="#f9d5ff"/></svg></g><g transform="translate(964.0 614.0) rotate(0.0 236.5 321.5) scale(1.3983739837398375 1.40050836493371)"><svg width="338.25" height="459.119" viewBox="0 0 338.25 459.119"><g fill="#f9d5ff"><path d="M148.929 216.343h7.384v238.346h-7.384z"/><path d="M254.738 455.427H50.505l22.815-4.8a368.7 368.7 0 0 1 76.348-7.975h5.907a368.687 368.687 0 0 1 76.347 7.975z"/><path d="M254.738 459.119H50.505a3.689 3.689 0 0 1-3.692-3.323 3.649 3.649 0 0 1 2.879-3.987l22.816-4.8a374.764 374.764 0 0 1 77.086-8.049h5.906a374.236 374.236 0 0 1 77.086 8.049l22.816 4.8a3.65 3.65 0 0 1 2.879 3.987 3.453 3.453 0 0 1-3.543 3.323zm-167.684-7.384h131.061a369.561 369.561 0 0 0-62.614-5.39h-5.907a369.99 369.99 0 0 0-62.54 5.39z"/></g><path d="m276.741 237.9-193.3-21.56 58.7-179.794A47.687 47.687 0 0 1 187.4 3.692h99.533a47.6 47.6 0 0 1 45.262 62.392z" fill="#fff"/><path d="M276.741 241.6h-.441L83 220.039a3.621 3.621 0 0 1-2.658-1.7 3.687 3.687 0 0 1-.369-3.175l58.619-179.796A51.248 51.248 0 0 1 187.4 0h99.533a50.587 50.587 0 0 1 41.5 21.191 50.844 50.844 0 0 1 7.236 46.075l-55.457 171.818a3.66 3.66 0 0 1-3.471 2.516zM88.383 213.168l185.774 20.748 54.492-168.939a43.877 43.877 0 0 0-41.718-57.519H187.4a43.77 43.77 0 0 0-41.717 30.347z" fill="#f9d5ff"/><path d="M20.453 249.865h240.266a16.859 16.859 0 0 0 16.1-11.962 16.755 16.755 0 0 0-16.1-21.56H20.453A16.8 16.8 0 0 0 3.692 233.1a16.7 16.7 0 0 0 16.761 16.765z" fill="#fff"/><path d="M260.719 253.556H20.453a20.453 20.453 0 1 1 0-40.9h240.266a20.452 20.452 0 0 1 19.64 26.286 20.647 20.647 0 0 1-19.64 14.614zM20.453 220.034a13.07 13.07 0 0 0 0 26.139h240.266a13.069 13.069 0 0 0 10.558-20.822 12.977 12.977 0 0 0-10.558-5.317z" fill="#f9d5ff"/></svg></g><g transform="translate(673.0 419.0) rotate(0.0 327.0 421.0) scale(0.9988270654644087 0.9992381106092504)"><svg width="654.768" height="842.642" viewBox="0 0 654.768 842.642"><linearGradient id="c" gradientUnits="userSpaceOnUse" x1="293.231" x2="293.231" y1="165.344" y2="474.693"><stop offset="0" stop-color="#ea979a"/><stop offset=".409" stop-color="#f2d38b"/><stop offset=".499" stop-color="#7e9dae"/><stop offset=".599" stop-color="#90979d"/><stop offset="1" stop-color="#7ebddb"/></linearGradient><linearGradient id="d" gradientUnits="userSpaceOnUse" x1="217.666" x2="223.309" y1="803.299" y2="249.088"><stop offset="0" stop-color="#d96359"/><stop offset=".401" stop-color="#90979d"/><stop offset=".501" stop-color="#7e9dae"/><stop offset=".591" stop-color="#b8c1fc"/><stop offset="1" stop-color="#d2d4d4"/></linearGradient><linearGradient xmlns:xlink="http://www.w3.org/1999/xlink" id="e" x1="465.787" x2="465.787" xlink:href="#c" y1="165.344" y2="474.693"/><linearGradient xmlns:xlink="http://www.w3.org/1999/xlink" id="f" x1="396.79" x2="402.434" xlink:href="#d" y1="805.123" y2="250.912"/><linearGradient xmlns:xlink="http://www.w3.org/1999/xlink" id="g" x1="558.829" x2="558.829" xlink:href="#c" y1="165.344" y2="474.693"/><path d="m302.981 141.154 16.209-13.113a40.53 40.53 0 0 1 54.946 59.359l-8.046 8.511z" fill="#be6361"/><path d="m366.2 195.91-155.64 164.5-55.75-94.559 244.037-80.87a56.162 56.162 0 0 1 35.289 106.637L190.1 372.487l-3.449 1.15a55.442 55.442 0 0 1-52.3-95.708L303.1 141.153z" fill="url(#c)"/><path d="M262.864 307.033a1.965 1.965 0 0 1-1.379-3.22l103.338-109.168a1.871 1.871 0 1 1 2.758 2.53L264.243 306.343a1.8 1.8 0 0 1-1.379.69z" fill="#2b2b2b"/><path d="m392.631 511.153-9.031.216s-109.758-4.673-133.452-7.163c-1.99-.263-21.891-2.053-41.134-4.873-39.21-5.669-92.089-14.332-99.926-15.778l84.812-96.124 3.683 25.159 1.858 12.634 1.747 12.667c2.236 16.836 2.033 12.823 6.595 50.541C212.468 526.591 200 803.813 200 803.813l-110.8 2.93-50.872-385a80.35 80.35 0 0 1 61-95.707 84.56 84.56 0 0 1 24.8-1.542l283.43 26.792z" fill="url(#d)"/><path d="m209.556 501.211-.332.1a1.944 1.944 0 0 1-2.152-1.652l-3.99-32.016a1.918 1.918 0 1 1 3.8-.5l3.99 32.015a1.859 1.859 0 0 1-1.316 2.053zM8.521 842.642l174.136-.287a16.827 16.827 0 0 0 16.777-16.465l.448-22.044-110.071 1.285-83.383 20.753c-9.7 2.446-7.95 16.788 2.093 16.758z" fill="#2b2b2b"/><path d="M581.88 360.057Q466.13 376.023 350.368 392c-2.8-28.658 3.6-46.3 10.257-57.261 11.9-19.585 18.811-27.709 18.811-27.709 3.58-4.2 13.682-15.606 15.23-26.846a40.153 40.153 0 0 0-2.7-20.435c-7.869-21.033-5.946-46.5 4.531-65.12a54.877 54.877 0 0 1 11.738-14.611 45.14 45.14 0 0 1 31.2-11.141c33.676.575 35.975-.7 50.122-.464 44.828.807 74.945 47.05 61.263 89.723a91.4 91.4 0 0 0-3.559 22.546c-1.235 40.581 25.489 70.118 34.619 79.375z" fill="url(#e)"/><path d="m421.18 213.316-24.68-18.689a54.877 54.877 0 0 1 11.738-14.611 38.416 38.416 0 0 1 10.875-.751z" fill="#2b2b2b"/><path d="m564.416 519.775-3.6 1.168-3.591 1.057-7.3 2.1-7.295 1.875-7.291 1.759c-4.864 1.25-9.721 2.269-14.58 3.4l-14.686 3.066c-19.539 3.962-39.289 7.111-59.024 9.8-4.963.671-9.926 1.343-14.884 1.9l-14.883 1.785c-4.963.672-9.916 1-14.875 1.555-4.956.442-9.916 1-14.872 1.44l-14.98 1.207c-4.957.442-10.025.766-14.977 1.093-10.02.535-19.928 1.3-30.059 1.721l67.32-83-.688 21.272-.288 10.694-.4 10.692c-.614 14.252-1.11 28.394-1.953 42.64l-1.151 21.374-1.38 21.368c-.843 14.246-2.146 28.481-3.22 42.721-2.491 28.472-5.217 57.053-8.745 85.611-1.765 14.336-3.643 28.556-5.755 42.883-1 7.107-2.11 14.327-3.336 21.43l-1.9 10.881-.95 5.383-1.073 5.383-108.72 6.279-19.718-339.431c-2.444-41.608 27.736-77.734 68.038-84.013l236.807-35.74z" fill="url(#f)"/><path d="M392.207 552.191a1.939 1.939 0 0 1-1.9-2.007l.75-27.829a1.938 1.938 0 0 1 2-1.9 1.872 1.872 0 0 1 1.9 2.007l-.75 27.829a2.014 2.014 0 0 1-2 1.9zm-156.274-85.337-.23-.006a1.833 1.833 0 0 1-1.553-2.113 82.735 82.735 0 0 1 69.482-69.361l141.1-21.631a1.872 1.872 0 0 1 .59 3.7l-141.1 21.631a79.072 79.072 0 0 0-66.408 66.221 1.962 1.962 0 0 1-1.881 1.559z" fill="#2b2b2b"/><path d="m441.981 212.1 41.032-34.834L439.476 73.7 380.61 95.241l33.367 108.543a17.487 17.487 0 0 0 28.004 8.316z" fill="#be6361"/><path d="m383.115 158.215 38.234-8.883A36.808 36.808 0 0 0 448.9 105.1l-13.449-57.779A58.935 58.935 0 1 0 320.64 74l12.3 52.963a41.946 41.946 0 0 0 50.175 31.252z" fill="#be6361"/><path d="M329.636 89a6.679 6.679 0 0 1-3.7 7.893l-2.943-12.68A6.661 6.661 0 0 1 329.636 89zm7.436 21.2a30.8 30.8 0 0 1 7.867-3.828l7.809-2.372a27.508 27.508 0 0 1 14.273-.288l17.146 4.269a10.523 10.523 0 0 0 13.032-9.15l3.747-35.924 13.694-3.953 18.569 64.323a20.294 20.294 0 0 1-13.932 25.094l-33.133 9.564a42.458 42.458 0 0 1-52.858-29.76l-1.23-4.674a12.585 12.585 0 0 1 5.016-13.301z" fill="#2b2b2b"/><path d="M360.059 121.41s-13.689-16.247-16.779 3.035z" fill="#fff"/><path d="m398.768 154.414 25.7-9.213-17.725 35.17z" fill="#2b2b2b"/><ellipse cx="360.644" cy="82.446" fill="#2b2b2b" rx="6.667" ry="6.672" transform="matrix(.96076947 -.27734819 .27734819 .96076947 -8.718 103.258)"/><path d="M570.251 215.806c1.839 4.026 3.564 8.051 5.4 12.193l5.173 12.194c3.449 8.167 6.781 16.335 10.116 24.5 6.552 16.45 12.874 32.9 19.081 49.464s12.069 33.246 17.932 49.925c2.988 8.4 5.747 16.68 8.62 25.077l8.391 25.192 1.379 4.027a38.581 38.581 0 0 1 1.954 10.008l1.723 25.882c.46 8.627 1.035 17.256 1.494 25.883.92 17.255 1.609 34.625 2.184 51.881.574 17.37.919 34.625 1.034 52 0 8.741.115 17.37-.115 26.112l-.23 13c-.115 4.372-.23 8.742-.459 13.114a40.844 40.844 0 0 1-80.349 8.282c-1.149-4.257-2.068-8.512-3.1-12.769L567.605 619c-1.954-8.512-3.679-17.026-5.4-25.538-3.449-17.025-6.552-34.05-9.656-51.191-2.988-17.025-5.748-34.165-8.506-51.305-1.379-8.512-2.528-17.141-3.909-25.653l-3.679-25.652 3.335 14.034-10.231-24.5c-3.334-8.167-6.782-16.336-10-24.618-6.667-16.45-13.1-32.9-19.426-49.349q-9.483-24.847-18.277-49.809c-2.873-8.4-5.862-16.681-8.62-25.077l-4.139-12.654c-1.264-4.257-2.643-8.4-3.909-12.654a56.207 56.207 0 0 1 105.067-39.225z" fill="url(#g)"/><path d="m175.192 842.642 174.1-.9a16.827 16.827 0 0 0 16.738-16.407l.42-22.072-110.072 1.682-83.257 20.929c-9.7 2.395-7.949 16.777 2.067 16.764z" fill="#2b2b2b"/><path d="m340.915 85.387-5.855 11.628a4.6 4.6 0 0 0 2.15 6.2l6.07 1.961" fill="#be6361"/><g fill="#2b2b2b"><path d="M343.82 107.058a1.851 1.851 0 0 1-1.089-.044l-6.322-2.007a6.28 6.28 0 0 1-3.374-3.816 6.5 6.5 0 0 1 .348-5.01l5.855-11.628a1.871 1.871 0 1 1 3.351 1.666l-5.855 11.628a2.906 2.906 0 0 0-.12 2.07 2.716 2.716 0 0 0 1.283 1.545l5.928 1.881a1.77 1.77 0 0 1 1.175 2.414 1.649 1.649 0 0 1-1.18 1.3zm36.537 200.199a2.162 2.162 0 0 1-.919-.23 1.887 1.887 0 0 1-.69-2.645 69.674 69.674 0 0 1 6.667-9.433c4.943-6.1 8.506-10.469 7.7-23.812a1.778 1.778 0 0 1 1.839-1.955 1.842 1.842 0 0 1 1.953 1.84c.805 14.838-3.564 20.245-8.5 26.457a58.888 58.888 0 0 0-6.322 8.857 2.18 2.18 0 0 1-1.724.921zM315.115 47.816c28.22 6.58 60.2-3.25 74.991-15.422l10.874 30.625 16.71 6.91 26.621 15.543-9.957-40.707a58.64 58.64 0 0 0-72.6-42.619l-47.395 13.2a16.188 16.188 0 0 0-6.888 3.9 16.823 16.823 0 0 0 7.647 28.563z"/></g><path d="m430.722 71.555-11.486 3.316-6.285-21.771a9.523 9.523 0 0 1 6.519-11.82l2.319-.669a9.521 9.521 0 0 1 11.811 6.526l3.637 12.6a9.52 9.52 0 0 1-6.515 11.818zm224.046 541.053-.715 21.155a40.723 40.723 0 0 1-40.4 41.426c-20.586.446-37.387-14.594-41.082-34.6l-2.62-11.163z" fill="#be6361"/><path d="M513.624 394.344a1.5 1.5 0 0 1-1.412-1l-41.818-116.859a1.5 1.5 0 1 1 2.824-1.011l41.818 116.864a1.5 1.5 0 0 1-1.412 2.006z" fill="#2b2b2b"/></svg></g><g transform="translate(126.0 392.0) rotate(0.0 323.0 435.0) scale(0.9989932745793326 0.9992132631204167)"><svg width="646.651" height="870.685" viewBox="0 0 646.651 870.685"><linearGradient id="h" gradientUnits="userSpaceOnUse" x1="424.117" x2="-113.163" y1="883.353" y2="-522.492"><stop offset="0" stop-color="#9774ac"/><stop offset=".4" stop-color="#47a6d3"/><stop offset=".5" stop-color="#a7a7ae"/><stop offset=".59" stop-color="#e89ac0"/><stop offset="1" stop-color="#bfe7d1"/></linearGradient><linearGradient xmlns:xlink="http://www.w3.org/1999/xlink" id="i" x1="469.946" x2="-67.334" xlink:href="#h" y1="865.838" y2="-540.007"/><linearGradient xmlns:xlink="http://www.w3.org/1999/xlink" id="j" x1="472.626" x2="-64.654" xlink:href="#h" y1="864.814" y2="-541.031"/><linearGradient xmlns:xlink="http://www.w3.org/1999/xlink" id="k" x1="434.686" x2="-102.594" xlink:href="#h" y1="879.313" y2="-526.531"/><path d="M229.921 108.334s-12.447 97.448 17.33 127.2 97.634 34.276 84.332 6.243c-19.527-41.253-17.209-72.715-10.741-96.587 10.741-39.664-29.168-87.774-35.881-115.32z" fill="#2b2b2b"/><path d="M462.321 243.617 491 238.108a34.1 34.1 0 0 1 18.8 65.249l-30.877 12.12z" fill="#fdc068"/><path d="M461.791 244.165c-21.039 5.129-77.7 18.868-84.987 20.608l-87.338-61.8a46.184 46.184 0 0 0-20.866-17.204 44.847 44.847 0 0 0-16.476-3.059c-32.464-.245-34.66-1.591-48.33-1.714a64.327 64.327 0 0 0-20.869 3.427 60.759 60.759 0 0 0-7.252 3.131 46.827 46.827 0 0 0-48.752 1.516 31.06 31.06 0 0 0-.38.25L26.1 255.671l-4.026 2.694a45.817 45.817 0 0 0 29.779 83.853l63.834-6.979c-1.034 2.979-2 6.208-2.828 9.679a102.3 102.3 0 0 0-2.751 25.961l208.041-9.436a87.976 87.976 0 0 0-3.345-25.964l20.546 14.337 3.174 2.2a39.314 39.314 0 0 0 36.611 4.284l103.128-40.52z" fill="#fff"/><path d="M110.1 372.379a1.5 1.5 0 0 1-1.5-1.468 103.918 103.918 0 0 1 2.8-26.341c.606-2.54 1.318-5.082 2.123-7.585l-61.507 6.724a46.961 46.961 0 0 1-44.277-21.073 47.455 47.455 0 0 1 13.505-65.523l4.019-2.688L126.1 187.814a48.205 48.205 0 0 1 49.609-1.955 61.875 61.875 0 0 1 6.716-2.85A64.8 64.8 0 0 1 203.8 179.5c5.391.049 9.077.289 13.347.569 6.794.444 15.249 1 34.99 1.145a45.809 45.809 0 0 1 17.01 3.161 47.3 47.3 0 0 1 21.409 17.534l86.564 61.251c9.56-2.292 63.629-15.4 84.321-20.448a1.5 1.5 0 0 1 1.817 1.121l16.468 71.619a1.5 1.5 0 0 1-.913 1.731L375.68 357.7a40.785 40.785 0 0 1-38.012-4.445l-20.358-14.2a93.41 93.41 0 0 1 2.336 22.394 1.5 1.5 0 0 1-1.432 1.489l-208.042 9.436zm5.579-38.64a1.5 1.5 0 0 1 1.417 1.992 100.463 100.463 0 0 0-2.786 9.536 100.778 100.778 0 0 0-2.732 24.044l205.065-9.3a85.267 85.267 0 0 0-3.285-24.1 1.5 1.5 0 0 1 2.3-1.657l23.717 16.539a37.778 37.778 0 0 0 35.212 4.118l101.92-40.046-15.837-68.882c-22.258 5.422-76.323 18.531-83.518 20.249a1.507 1.507 0 0 1-1.214-.235L288.6 204.2a1.473 1.473 0 0 1-.371-.376 44.41 44.41 0 0 0-20.191-16.661 42.887 42.887 0 0 0-15.912-2.952c-19.846-.15-28.349-.705-35.181-1.152-4.4-.287-7.872-.514-13.169-.562a63.192 63.192 0 0 0-20.372 3.347 59.522 59.522 0 0 0-7.055 3.049 1.5 1.5 0 0 1-1.419-.032 45.225 45.225 0 0 0-47.193 1.465l-.368.243-100.445 66.354-4.02 2.689a44.449 44.449 0 0 0-12.655 61.379 43.962 43.962 0 0 0 41.445 19.734l63.826-6.977a1.484 1.484 0 0 1 .163-.009z" fill="#2b2b2b"/><path d="M318.278 362.943h-.009a1.5 1.5 0 0 1-1.491-1.51c.178-26.653-8.855-39.77-16.113-50.31-7.864-11.419-14.076-20.439-6.232-39.854a72.892 72.892 0 0 0 4.465-16.84 1.5 1.5 0 1 1 2.97.425 75.951 75.951 0 0 1-4.653 17.537c-7.24 17.921-1.72 25.936 5.921 37.031 7.5 10.886 16.827 24.434 16.642 52.031a1.5 1.5 0 0 1-1.5 1.49zm-167.585-104.71 8.6-13.307a1.925 1.925 0 0 1 2.564-.5.227.227 0 0 0 .056.044 1.823 1.823 0 0 1 .442 2.531l-7.461 11.538zM387.552 274.7l-17.086-12.238a1.834 1.834 0 0 1 2.2-2.939l17.087 12.238a1.905 1.905 0 0 1 .366 2.572 1.741 1.741 0 0 1-1.464.735 1.975 1.975 0 0 1-1.103-.368zm-271.869 60.539-4 15.3 119.564 4-35.443-78.6-46.274 56.505z" fill="#2b2b2b"/><path d="M262.4 156.938a40.324 40.324 0 0 0 42.583-37.951l3.172-52.518v-.067a56.931 56.931 0 0 0-53.337-60.284h-.066a56.88 56.88 0 0 0-60.1 53.5l-3.419 57.282v.041a35.569 35.569 0 0 0 33.32 37.668l37.833 2.325z" fill="#fdc068"/><path d="M235.242 221.519A16.742 16.742 0 0 0 252.01 204.8l.976-109.934-60.411-3.666-11.594 107.973 47.6 20.933a16.678 16.678 0 0 0 6.661 1.413z" fill="#fdc068"/><g fill="#2b2b2b"><ellipse cx="300.828" cy="82.996" rx="6.468" ry="6.488"/><ellipse cx="263.97" cy="81.037" rx="6.468" ry="6.488"/><path d="M308.15 58.39c-11.838-3.306-36.613-33.912-39.176-50.682 36.98 7.957 39.054 50.682 39.176 50.682z"/><path d="M205.636 19.593c-21.969 21.423-26.483 55.088-27.826 61.086-4.272 18.359-47.719 22.4-56.994 65-12.692 58.393-47.475 71.859-36 71.614 47.845-1.346 69.565 62.066 115.941 15.791s9.764-136.62 39.419-158.534c23.921-17.619 61.144-45.9 41.252-61.943C254.7-8.942 226.137-.371 205.636 19.593z"/><path d="m255.306 160.488-17.941-3.061-.062-.011a1.8 1.8 0 0 1 .672-3.539l17.941 3.06a1.818 1.818 0 0 1 1.464 2.082 1.841 1.841 0 0 1-1.83 1.469zm31.805-78.545a22.531 22.531 0 1 1 21.345 23.673 22.576 22.576 0 0 1-21.345-23.673zm3.9.2a18.621 18.621 0 1 0 19.552-17.657 18.623 18.623 0 0 0-19.548 17.658z"/><path d="M286.234 103.554a1.651 1.651 0 0 1-1.445-1 1.769 1.769 0 0 1 .6-2.618l5.343-3.182a2.715 2.715 0 0 0 .9-1.8 2.9 2.9 0 0 0-.588-1.988l-8.349-9.99a1.871 1.871 0 1 1 2.884-2.385l8.349 9.99a6.5 6.5 0 0 1 1.48 4.8 6.277 6.277 0 0 1-2.417 4.484l-5.7 3.394a1.857 1.857 0 0 1-1.05.292z"/><path d="M239.449 82.147a22.531 22.531 0 1 1 21.345 23.672 22.577 22.577 0 0 1-21.345-23.672zm3.9.2A18.621 18.621 0 1 0 262.9 64.691a18.624 18.624 0 0 0-19.547 17.656z"/><path d="M280.455 81.6a1.937 1.937 0 0 1 2.051-1.852l6.773.347a1.872 1.872 0 0 1 1.851 2.053A1.938 1.938 0 0 1 289.078 84l-6.772-.347a1.938 1.938 0 0 1-1.851-2.053zm.545 41.256a18.1 18.1 0 0 1-9.08-2.5 1.5 1.5 0 0 1 1.527-2.582 14.918 14.918 0 0 0 8.538 2.052 14.707 14.707 0 0 0 6.484-2.048 1.5 1.5 0 0 1 1.539 2.575 17.708 17.708 0 0 1-7.814 2.466c-.404.024-.802.037-1.194.037z"/></g><path d="m192.8 231.2 117.923 32.607-40.568 147.651-117.923-32.606z" fill="#ababc2"/><path d="m223.322 228.23 62.709 17.34-5.825 21.2-62.71-17.34z" fill="#de6381"/><path d="m162.331 259.157 29.133 2.06a33.436 33.436 0 0 1 31.373 30.166c1.442 16.935-10.775 32.664-28.078 35.476l-41 3.778q4.283-35.737 8.572-71.48z" fill="#fdc068"/><path d="M47.1 343.524A46.957 46.957 0 0 1 7.739 322.2a47.455 47.455 0 0 1 13.505-65.523l4.019-2.688L126.1 187.374a48.228 48.228 0 0 1 50.3-1.587 1.5 1.5 0 0 1-1.479 2.611 45.236 45.236 0 0 0-47.181 1.488l-.368.242-100.448 66.355-4.02 2.689a44.449 44.449 0 0 0-12.655 61.379 43.96 43.96 0 0 0 41.445 19.735l100.729-11.012 9.153-68.743-91.476-6.648a1.5 1.5 0 1 1 .216-2.992l93.064 6.763a1.5 1.5 0 0 1 1.379 1.693l-9.519 71.488a1.5 1.5 0 0 1-1.324 1.294l-101.904 11.14a47.779 47.779 0 0 1-4.912.255z" fill="#2b2b2b"/><path d="M176.97 518.234a69.462 69.462 0 0 1-67.353-71.492l2.29-80.511 83.485 5.246 2.442-.245 4.76-.5c3.3-.252 6.467-.372 9.641-.5s6.346-.124 9.52-.247h9.517c12.686.123 25.382.981 38.077 2.2 12.571 1.224 25.263 2.937 37.834 4.9 12.57 2.081 25.141 4.406 37.711 7.1l13.547 2.938a60.771 60.771 0 0 1 47.719 62.434q-2.316 48.112-5.614 96.222l-1.709 24.117L397 594.017c-1.223 16.036-2.684 32.067-4.026 48.11-2.93 32.074-6.224 64.27-10.008 96.344-1.952 16.16-3.906 32.192-6.224 48.234l-3.423 24.117c-1.342 8.075-2.441 16.037-3.9 24.118l-91.167 1.346-5.606-384.645 62 66.108-155.482.513q-1.101.003-2.194-.028z" fill="url(#h)"/><path d="m138.383 443.378-3.538 59.863 4.739 2.97 7.794 4.914 10.392 4.381 9.157 2.218 9.471.753h8.876l77.548-54.491z" fill="#2b2b2b"/><path d="M111.9 366.212s51.267-19.478 72.747-26.094c21.357-6.733 42.958-12.731 64.683-18.73 21.721-5.754 43.448-11.385 65.415-16.527l9.642-2.326a59.954 59.954 0 0 1 64.438 26.81q23.433 37.767 46.132 76.145l11.35 19.22 11.107 19.342c7.571 12.854 14.771 25.831 22.094 38.807 14.522 25.953 84.577 120.095 97.024 147.639L507.7 695.992l-227.248-288.3 74.938 24.73-220.546 70.818z" fill="url(#i)"/><path d="m387.122 543.09 19.038-73.086 28.314 133.071zm-46.256-128.665-.067-.061a1.779 1.779 0 0 1-.055-2.509l13.547-14.812a1.817 1.817 0 1 1 2.686 2.448L343.43 414.3a1.958 1.958 0 0 1-1.342.612 1.568 1.568 0 0 1-1.222-.487zm56.018 440.102-25.873-20.2-92.141-.857.366 21.3a16.145 16.145 0 0 0 16.108 15.914h99.466c9.763.001 11.473-13.827 2.074-16.157zm237.375-250.22L576.531 630.5 507.7 696l15.255 14.812a16.062 16.062 0 0 0 22.579-.123l98.61-93.407c6.834-6.855-1.586-17.882-9.885-12.975z" fill="#2b2b2b"/><path d="m274.6 571.98-.122-91.692a66.467 66.467 0 0 1 77.009-65.741 66.655 66.655 0 0 1 55.408 70.76c-3.9 51.049-10.5 108.954-10.5 117.767z" fill="url(#j)"/><path d="m281.066 484.327-40.886-.979 64.319-57.66z" fill="url(#k)"/><path d="M272.4 514.932v-23.381a1.831 1.831 0 1 1 3.661 0v23.381a1.831 1.831 0 1 1-3.661 0zm134.005-34.399c.122-31.34-23.555-58.761-55.164-64.026H351a32.01 32.01 0 0 0-21.846 4.774l-68.831 44.324-.056.034a1.867 1.867 0 0 1-1.9-3.216L327.2 418.1a35.1 35.1 0 0 1 24.165-5.264h.244c33.439 5.513 58.58 34.524 58.458 67.7a1.83 1.83 0 1 1-3.66 0z" fill="#2b2b2b"/></svg></g></svg>