<svg xmlns="http://www.w3.org/2000/svg" viewBox="0 0 2500 2500" width="2500" height="2500"><g transform="translate(667.0 202.0) rotate(0.0 437.0 330.0) scale(0.9990855052583448 0.9987893462469735)"><svg width="874.8" height="660.8" viewBox="0 0 874.8 660.8"><path d="M161.5 314c0 74.4 59.2 134.7 132.1 134.7 17.6 0 35.1-3.6 51.3-10.5 1.8 7 4 13.8 6.7 20.5 35.3 89.7 135.3 134.4 223.3 99.7 39.3-15.5 71.4-45.1 89.9-83.1 22 15.7 48.4 24.1 75.4 24.1 73 0 132.1-60.3 132.1-134.7.1-38.7-16.4-75.7-45.3-101.5 13.4-39.6 12.4-82.6-3-121.4C788.7 52.1 688.7 7.4 600.7 42.1c-21.3 8.4-40.6 21-56.9 37-44.6-65.8-129.2-94.7-205-64.9-73.6 29-115.5 104.1-106.7 180.4-43.7 23.7-70.9 69.6-70.6 119.4z" fill="#fff"/><path d="M513.1 572.7c-24.4 0-48.5-5.2-70.7-15.2-42.8-19.1-76.2-54.2-93.2-97.9-2.3-5.9-4.3-11.9-6-18-15.8 6.4-32.6 9.6-49.6 9.6C219.4 451.1 159 389.6 159 314c0-50.6 27-96.6 70.6-120.7-8.4-78.5 36-152.9 108.4-181.4 37-14.5 78-15.7 115.8-3.5 36.6 11.9 68.3 35.4 90.4 66.8 16-15.4 34.9-27.4 55.6-35.5C689 4.6 790.6 50 826.4 140.9c15.4 38.9 16.6 81.9 3.6 121.6 28.6 26.3 44.9 63.4 44.9 102.2 0 75.6-60.4 137.2-134.6 137.2-26.6 0-52.5-7.9-74.5-22.9-29.3 57.4-88.3 93.6-152.7 93.7zm-166.6-138 .7 2.8c1.8 6.9 4 13.6 6.6 20.2 16.5 42.4 49 76.6 90.6 95.1 41.6 18.6 87.6 19.7 129.5 3.2 38.7-15.3 70.3-44.5 88.6-81.9l1.3-2.6 2.4 1.7c21.6 15.4 47.4 23.7 74 23.6 71.5 0 129.6-59.3 129.6-132.2.1-38-16.1-74.3-44.4-99.6l-1.2-1.1.5-1.6c13.2-39 12.1-81.4-3-119.7C787 54.4 688.2 10.3 601.6 44.4c-21 8.2-40 20.6-56 36.5l-2.1 2.1-1.7-2.5c-21.6-31.7-53-55.4-89.5-67.3-36.7-11.9-76.5-10.7-112.5 3.4-70.8 27.9-114 101-105.1 177.8l.2 1.7-1.5.8C190.6 219.8 164 264.7 164 314c0 72.9 58.2 132.2 129.6 132.2 17.3 0 34.4-3.5 50.3-10.3z" fill="#66b0f0"/><ellipse cx="162.1" cy="517.5" fill="#fff" rx="77.4" ry="37.7"/><path d="M162.1 557.7c-44.8 0-79.9-17.7-79.9-40.2s35.1-40.2 79.9-40.2S242 495 242 517.5c-.1 22.5-35.1 40.2-79.9 40.2zm0-75.4c-20.3 0-39.3 3.8-53.6 10.8-13.7 6.7-21.3 15.3-21.3 24.4s7.5 17.7 21.3 24.4c14.3 7 33.3 10.8 53.6 10.8s39.3-3.8 53.6-10.8c13.7-6.7 21.3-15.3 21.3-24.4s-7.6-17.7-21.2-24.4c-14.4-7-33.4-10.8-53.7-10.8z" fill="#66b0f0"/><ellipse cx="56.4" cy="629.1" fill="#fff" rx="53.9" ry="29.2"/><path d="M56.4 660.8C24.8 660.8 0 646.9 0 629.1s24.8-31.7 56.4-31.7 56.4 13.9 56.4 31.7-24.8 31.7-56.4 31.7zm0-58.4C28.5 602.4 5 614.7 5 629.1s23.5 26.7 51.4 26.7 51.4-12.2 51.4-26.7-23.5-26.7-51.4-26.7z" fill="#66b0f0"/></svg></g><g transform="translate(1719.0 685.0) rotate(0.0 225.0 305.0) scale(0.9995557529986673 0.9988537743572948)"><svg width="450.2" height="610.7" viewBox="0 0 450.2 610.7"><path d="M2.5 2.5h445.2v605.7H2.5z" fill="#fff"/><path d="M450.2 610.7H0V0h450.2zM5 605.7h440.2V5H5z" fill="#66b0f0"/><path d="M223.8 375.4s79.4-33.5 75.9-123.5C295.5 146 180.9 149.3 180.9 149.3" fill="#5b2448"/><path d="M340.6 506.3c-59.8 88.1-140.9 36.5-155.6 33 7-23.5 12.3-66.8 7.8-88.1-4-18.7-8.4-33.5-10-35.1l-.1.1c-15.7 13.6-26.9 17.7-39.4 16.5-4.3-.5-8.5-1.6-12.5-3.5-26-11.7-49-49.3-57.1-73.7-3.4-10.4-6.1-21-8.2-31.8-.1-.3-.1-.6-.2-.9v-.1c-1-4.8-1.8-9.5-2.5-13.7 0-.1 0-.2-.1-.4-.1-.5-.2-1-.2-1.4v-.2c-.1-.4-.1-.8-.2-1.2-.2-1.1-.4-2.3-.5-3.3-.1-.9-.3-1.8-.4-2.6-.2-1.3-.4-2.5-.5-3.6l-.3-2.1c-.1-.6-.1-1.1-.2-1.6 0-.1 0-.3-.1-.4v-.2c0-.1 0-.3-.1-.4-.2-1.6-.4-2.7-.4-3.4v-1.1c0-.2-.1-.4-.1-.6-.2-1.2-.3-2.4-.4-3.6-.1-.6-.1-1.2-.2-1.8-.1-1.1-.2-2.3-.3-3.4 0-.3 0-.5-.1-.8-.1-1.1-.2-2.2-.2-3.3-.1-.9-.1-1.8-.1-2.7v-1.2c0-.7 0-1.4-.1-2.1v-1.2c-.1-5.7.1-11.4.6-17 0-.7.1-1.4.2-2.1s.1-1.4.2-2.1l.6-5.4c4.4-29.6 20.3-56.1 46-71.9 11.5-6.9 24.1-11.8 37.2-14.5h.2c.8-.2 1.7-.4 2.5-.5 7.1-1.4 14.3-2.1 21.5-2.1h2.7s1.8.1 2.7.1c.7 0 1.5.1 2.2.1.4 0 .8.1 1.2.1.5 0 1.1.1 1.6.1l.8.1c.6.1 1.1.1 1.7.2.3 0 .6.1.9.1.5.1 1 .1 1.4.2s.8.1 1.3.2.9.1 1.3.2.7.1 1.1.2.8.1 1.2.2.8.1 1.2.2c.5.1 1.1.2 1.6.4 2.6.6 5.1 1.3 7.6 2 .4.1.7.2 1.1.4.5.2 1 .3 1.5.5h.1c.7.2 1.4.5 2.1.8.1.1.3.1.4.2.5.2 1.1.4 1.6.6.4.1.8.3 1.2.5.3.1.6.2.9.4.3.1.7.3 1 .4.5.2 1.1.5 1.6.7.1 0 .2.1.2.1.6.3 1.2.5 1.8.8l.6.3 1.8.9c.1 0 .1.1.2.1.5.3 1.1.6 1.6.8 1.1.6 2.1 1.2 3.2 1.8 1.2.7 2.4 1.4 3.6 2.2.6.4 1.1.7 1.6 1.1.4.3.8.5 1.1.8.3.2.7.5 1 .7.5.4 1.1.8 1.6 1.2.5.3.9.7 1.4 1 .2.1.3.2.5.4.4.3.8.6 1.1.9.5.4 1.1.9 1.6 1.3.4.4.9.7 1.3 1.1l2.1 1.8c.6.5 1.1 1.1 1.7 1.6l3.3 3.3c.3.3.6.6.9 1l.7.7c.4.5.8.9 1.2 1.4.5.5.9 1.1 1.4 1.6 1.4 1.7 2.7 3.4 4 5.1.4.6.8 1.2 1.2 1.7s.7 1.1 1.1 1.6c.1.1.2.2.2.3.4.5.7 1.1 1 1.6.4.6.7 1.2 1.1 1.8.1.1.1.2.2.3.3.5.6 1.1.9 1.6.8 1.3 1.5 2.6 2.2 3.9.3.6.6 1.1.8 1.7.3.6.6 1.3.9 1.9.6 1.3 1.2 2.6 1.7 3.9.3.7.5 1.3.8 2s.5 1.4.8 2.1c.5 1.3.9 2.6 1.3 4 .2.7.4 1.4.6 2s.4 1.4.5 2c.2.6.3 1.3.5 1.9 0 .1.1.2.1.3.1.6.3 1.3.4 1.9.4 2.1.8 4.2 1.1 6.3.1.5.1 1 .2 1.5s.1 1 .2 1.5.1 1 .1 1.5c.1.6.1 1.2.1 1.9.1 1.3.1 2.6.2 3.8v3.6s0 1.2-.1 1.8-.1 1.2-.1 1.8l-.3 3.6c0 .3-.1.5-.1.8-.1 1.3-.3 2.7-.5 4 0 .2-.1.4-.1.6-.3 1.7-.6 3.3-1 5l-.7 4.4-.6 4.1-.8 5.4-3.8 24.5-4.8 31.2v.1c.5 1.6 1 3.2 1.8 4.7 8.4 18.3 29.1 86.9 84.7 166z" fill="#f4ada2"/><circle cx="185.8" cy="339.7" fill="#e57281" opacity=".52" transform="matrix(.8773 -.48 .48 .8773 -140.2396 130.896)" r="24"/><g fill="#5b2448"><path d="M148.7 282.3c13.2.9 22.5 9.8 21.3 16.1s-13 10-25.8 6.7c-13.2-3.4-22.7-10.5-21.3-16.1 1.4-5.9 12.7-7.6 25.8-6.7zM62.8 309c1.8-.1 3.6-.4 5.4-.9 12.3-3 21.2-9.3 20-14.5-1.2-5.4-12-8.2-24.2-7.6-1.5.1-3 .2-4.5.5 0 .2.1.4.1.7v1c.2 1.7.9 7 2 14.3.3 1.9.6 4 1 6.2.2 0 .2.1.2.3zm87.6 8.9c-4.5.4-15.3 1.6-26.2-.4-1.5-.3-3 .7-3.3 2.3-.7 4-.6 10.5 7 10.9 9.4.5 22.2-6.3 24-10.9.3-.7-.1-1.6-.8-1.9h-.7zm-81.9 8c5.1-1 11.8-3.4 21.8-7.5 1.8-.6 3.7.4 4.3 2.2 0 .1.1.2.1.2 1.4 4.8 2.1 12.3-7.2 14.5s-17.3-1.6-20.5-6.8c-.8-1.1.2-2.4 1.5-2.6z"/><path d="M54.6 277.4c15.1 3.4 49.9 4.4 85.8.7 1-.1 1.9-.2 2.9-.3.3 0 .6-.1.8-.1 42.1-4.8 66.5.8 109.7 17.5 6.2-13.2 44.4-48.9 43.2-57.6-7.1-56.5-66.4-120.7-145-108.8-50.6 11.8-85.9 39.4-99.4 88.2-6.4 34.7 1.2 60.2 2 60.4zm138.2 173.8c-4-18.7-8.4-33.5-10-35.1 7-8.1 5.7-6.4 13.3-16.4 3.8-5.1 7.4-13 13.6-10.9 7 2.3 12.2 34.4-16.9 62.4z"/></g><path d="M240.5 346.4c.6 1.2 2 1.7 3.2 1.1.1-.1 1-.5 2.5-1.3 3.3-1.8 6.5-3.8 9.6-6-.7-1.5-1.3-3.1-1.8-4.7v-.1c-3.9 2.9-8.1 5.4-12.4 7.6-1.2.8-1.7 2.2-1.1 3.4zm-112.6 35.5c1.5 1.5 3.3 2.7 5.3 3.5 1.9.7 4 1.2 6.1 1.3 4.2.3 8.4-.7 12.1-2.7 1.8-1.1 3.5-2.4 4.9-4s2.6-3.3 3.5-5.2c1.8-3.8 2.2-8.2 1-12.2-.4-1.3-1.9-2.1-3.2-1.7-1 .3-1.7 1.2-1.8 2.3v.2c-.2 2.8-1 5.6-2.5 8-.7 1.2-1.6 2.3-2.6 3.2-1 1-2.1 1.8-3.3 2.5-2.5 1.4-5.2 2.2-8 2.3-2.8.3-5.7-.2-8.3-1.4l-.2-.1c-1.3-.6-2.8-.1-3.4 1.2-.5.9-.4 2 .4 2.8zm-51.6-30.2c-13.3 0-24.2-10.8-24.2-24.2s10.8-24.2 24.2-24.2c13.3 0 24.2 10.8 24.2 24.2s-10.8 24.2-24.2 24.2zm0-43.4c-10.6 0-19.2 8.6-19.2 19.2s8.6 19.2 19.2 19.2 19.2-8.6 19.2-19.2-8.6-19.2-19.2-19.2zm63.6 40.8c-13.3 0-24.2-10.8-24.2-24.2s10.8-24.2 24.2-24.2c13.3 0 24.2 10.8 24.2 24.2-.1 13.4-10.9 24.2-24.2 24.2zm0-43.3c-10.6 0-19.2 8.6-19.2 19.2s8.6 19.2 19.2 19.2 19.2-8.6 19.2-19.2c-.1-10.7-8.7-19.2-19.2-19.2z" fill="#9b3c82"/><path d="m100.1 327.9-4.6-2c.1-.3 3.6-8.1 12.6-8.1 5.2-.1 10.1 2.7 12.5 7.3l-4.5 2.2c-2.6-4.3-8.2-5.8-12.5-3.2-1.5.9-2.8 2.3-3.5 3.8z" fill="#9b3c82"/><path d="M3.6 2.5h443.2v51H3.6z" fill="#66b0f0"/><path d="M447.7 417.3v188.5H2.5v-75.3l26.9-22.7c90.4-74.8 156.5 29.1 156.5 29.1 99.7 38.3 128.1-1.9 154.2-35.4 12.9-62.2 56.8-83 107.6-84.2z" fill="#ffcf2d"/><circle cx="34.9" cy="28" fill="#fff" r="12.5"/><circle cx="71.5" cy="28" fill="#fff" r="12.5"/><circle cx="108.1" cy="28" fill="#fff" r="12.5"/><path d="M110.8 356.6c.9-.5 1.3-1.7.8-2.7-.4-.7-1.1-1.1-1.9-1-4.5.4-11.5-2.4-12.9-5.2-.3-.5-.4-1.2.5-2.1 4.5-4.9 7-11.3 6.8-17.9-.1-1.1-1.1-1.9-2.2-1.7-1 .1-1.8 1-1.7 2.1 0 5.6-2.1 10.9-5.8 15-1.8 1.7-2.2 4.4-1.1 6.5 2.3 4.6 11.2 7.9 16.8 7.4.2-.2.4-.3.7-.4zm221.6-222c0 27.8-18.2 52.3-44.8 60.2-1.6.5-3.1.9-4.8 1.2-34 7.3-67.4-14.3-74.7-48.3-.9-4.3-1.4-8.7-1.4-13.2V133c0-1.6.1-3.3.3-4.9 3.5-34.5 34.4-59.6 68.9-56.1 32.1 3.4 56.5 30.4 56.5 62.6z" fill="#5b2448"/><path d="M204.9 286.8c3-.4-.9-25.7-17-52.8 1.5 27.9 1.6 39.9-16.1 47.8zm60.1 39c-5.8 5.8-10.8 11-20 14.3l-17.3-46.7.3-1.2c.6-1.9 1.3-3.7 2.2-5.5 3.9-8.1 13-20.7 32.6-20.8 21.9-.4 30.3 30.4 2.2 59.9z" fill="#f4ada2"/><path d="M230.2 286.7c-.9 1.8-1.6 3.6-2.2 5.5l-65 26.9-1.8-4.3 68.8-28.4zm13.5 27.9c.6-.3 1-.9 1-1.5 3.2-22.8 20.3-27.4 21.1-27.6 1.1-.3 1.8-1.4 1.5-2.5s-1.4-1.8-2.5-1.5c-.8.2-20.6 5.4-24.1 31-.2 1.1.6 2.2 1.7 2.3.5.1.9 0 1.3-.2zm43.8-119.8c-1.6.5-3.1.9-4.8 1.2-19.5-28.9-45.1-50.1-76.1-63 0-1.6.1-3.3.3-4.9 33.1 13.4 60.2 35.8 80.6 66.7z" fill="#9b3c82"/></svg></g><g transform="translate(348.0 875.0) rotate(0.0 900.5 720.5) scale(0.9973971313064185 0.9969558599695585)"><svg width="1805.7" height="1445.4" viewBox="0 0 1805.7 1445.4"><path d="M1801.9 1147.4c-.1-8.8-.9-17.6-2.5-26.3-3.2-17.3-10-35.3-23.8-48.6-.6-.8-1.7-1-2.6-.5h-.1c-.1 0-.1 0-.2.1h-.1c-.5.2-1.3.4-2.4.9-.3.1-.6.2-.8.3-2.7 1.1-5.6 2.4-8.6 3.9-.5.2-.9.5-1.4.7-1 .5-2.1 1.1-3.2 1.7-.7.4-1.5.8-2.2 1.2-.4.2-.8.5-1.3.7-.4.2-.8.4-1.1.7l-48.8 335.4c30.9.4 61.4 1.1 80.1 2.3 1.3.1 2.4-.9 2.6-2.2.2-1.9 17.6-193.9 16.4-270.3z" fill="#fff"/><path d="m1091 1044.7-298.7 60.1-116.6 23.4-175.7 35.4-357.5 171.1C66.7 1267.2 20 1173.2 12.1 1072.1c7.2-5.4 20-14.8 37.7-27.4C114 999 243.3 910.6 412.6 814.4c48.3-27.5 99.8-55.5 154.1-83.5 9.2-11.7 19.1-22.7 29.8-33 52-50.2 115.1-77.9 163.1-79.9 152.2-6.3 217 115.5 238.5 213.1 16.7 121.2 92.9 213.6 92.9 213.6z" fill="#21a0aa"/><path d="M675.7 1128v.2c-.1 141.4-92.3 261.3-219.9 302.7-168.2 22.2-331.6-65.9-405.6-218.5-15-54.9-15.1-112.8-.3-167.8 36.6-135.5 160.4-235.1 307.4-235.1 18.5 0 37 1.6 55.3 4.8C562.1 840.6 675.7 971 675.7 1128z" fill="#21a0aa"/><path d="M760.7 1052c-.6-3.4-.9-6.8-.9-10.3z" fill="#f94f46"/><path d="m1645.9 1256.8-1.2 162.7-86.5.8-17.7.2-17.9.2-9.9-.1h-6.3l-110.7-.5c-4.6-41.8 22.5-107.8 25.2-175.8l92.2 5.2 32.9 1.8 17.6 1z" fill="#f4ada2"/><path d="m1645.9 1256.8-1.2 162.7-86.5.6-17.7.2-27.8.2h-6.3l6.7-171.2 32.9 1.9 17.6 1z" fill="#66b0f0"/><path d="m1563.6 1252.2-5.4 167.9v.1l-17.7.2v-.1l5.5-169.1z" fill="#fff"/><path d="M1399.5 1420c-319.7-3.8-496.9-111.8-496.9-111.8l10.8-149.7-24.2-168.2c34-8.2 162.1 48.3 164.3 49.3 45.8 20.8 132.1 60.2 162.4 68.1 145.9 38.1 194.1-1.2 230.3-14.5 33 61.6 52.2 99.3-46.7 326.8z" fill="#21a0aa"/><path d="m1038.3 994.8-36.8 340c-196.7 38.3-310.3 58.2-507.5 89.6-11.9 1.9-24.2 3.8-36.8 5.8-.1 0-.2 0-.3.1l51.1-344.1 252.4-43.5 5.1-.9z" fill="#21a0aa"/><path d="M939.6 1199.3c-1.5 27.3-4.3 57.7-9.1 90.7-.3 1.9-.6 3.8-.8 5.7-21 6.5-94.9-.6-147.6-45-.6-.5-1.3-1.1-1.9-1.6-.2-.1-.3-.3-.5-.4-1.7-1.5-3.5-3.1-5.1-4.8-.4-20.8-1.8-38.8-3.3-53.5-2.9-28.2-6.2-41.9-6.2-42.1.1 0 .2.1.4.1 22.1.9 104.9-7.3 173.9-48.6 2.1 33.1 2.2 66.4.2 99.5z" fill="#f4ada2"/><path d="M939.6 1199.3c-1.5 27.3-4.3 57.7-9.1 90.7-31.6 1.4-101.3-1.2-148.1-39.3-.7-.5-1.3-1.1-2-1.6-.1-.1-.3-.3-.5-.4-1.8-1.6-3.5-3.1-5.2-4.8-.5-20.8-1.8-38.8-3.4-53.5z" fill="#66b0f0"/><path d="M236 1041.4c-.5 0-.9-.1-1.3-.4-1.1-.7-1.4-2.2-.6-3.3.2-.4 25.4-38.3 68.6-84 .9-.9 2.3-1 3.3-.1.9.9 1 2.4.1 3.4-42.9 45.4-67.8 83-68.1 83.3-.5.7-1.2 1.1-2 1.1z" fill="#6ce0dc"/><path d="m284.8 810 49-11-29 159.7-18.7 20.4s-7.5-52.7-3.7-105c1.3-19.1 2.4-64.1 2.4-64.1z" fill="#5b2448"/><path d="M569.4 682.9c-4.7 38.7-10.1 60-10.1 60-142.2 69.4-254.5 215.8-254.5 215.8-2.8-36.4-3.8-72.9-2.8-109.3-15.9 37.1-32.8 75.1-46.8 117.9-121.5 41.2-220.5 108.7-241.4 122C-8.4 948.9-4.4 851.7 30.2 730c43-151.1 122.2-277.6 217.5-363.1 1.3-1.1 2.5-2.3 3.8-3.4 3.3-2.9 6.7-5.8 10.1-8.7 1.3-1.1 2.6-2.2 4-3.3 52.4-43.3 109.2-74.5 167.2-90.9l10.8 160.6c9.5 51.2 130.8 219.7 125.8 261.7z" fill="#f94f46"/><path d="M1009.1 829.3c-.1 0-.1.1-.2.1v-.1z" fill="#f4ada2"/><path d="M766.7 1001.8c0 13.6-.5 26.9-1.3 40-6.9 111.3-41.7 202.9-103.5 272.5-52.6 59.2-115.5 92-167.9 110.1-11.9 1.9-24.2 3.8-36.8 5.8 56.5-14.4 136.5-46.8 201-119.3 60.9-68.5 95.2-158.6 102.2-268.3.9-13.3 1.3-27 1.4-40.9z" fill="#6ce0dc"/><path d="m938 1223.7-164.2-11c.3 6.2.6 12.2.8 17.7l161.8 10.8c.6-5.6 1.1-11.5 1.6-17.5z" fill="#fff"/><path d="M1760.2 1078.6c-.7.4-1.5.8-2.2 1.2-.4.2-.9.5-1.3.7-2.2 1.2-4.5 2.6-6.9 4.1-.4.2-.8.5-1.2.7-1.2.7-2.3 1.5-3.6 2.3-.6.4-1.2.8-1.7 1.2l-.9.6-.9.6-1.8 1.3c-.7.5-1.5 1.1-2.2 1.6-.4.3-.9.7-1.4 1-1 .7-2 1.5-3 2.3-.3.2-.6.5-1 .8s-.8.7-1.2 1c-.2.2-.4.4-.7.6-.3.3-.6.5-1 .8l-.3.3c-.2.2-.4.4-.7.6-.4.4-.9.7-1.3 1.1-.4.3-.8.6-1.1 1-.2.1-.3.3-.5.4l-.4.4-2.1 1.8c-.5.4-1 .9-1.5 1.4l-.2.2s-.2.1-.2.2c-.2.2-.4.3-.5.5-.3.3-.7.6-1 .9l-.5.5-.5.5-.1.1c-.5.5-1 .9-1.4 1.4-.2.1-.3.3-.5.4-.4.4-.8.7-1.1 1.1l-.5.5c-.5.5-1 1-1.5 1.4l-.5.5c0 .1-.1.1-.1.1l-.4.4-.2.2c-.2.3-.5.5-.8.8l-.8.8c-.7.7-1.4 1.5-2.1 2.2-8.6 9.1-16.5 18.8-23.7 29-.3.5-.7 1-1 1.4-1.1 1.6-2.2 3.2-3.3 4.9-.7 1.1-1.4 2.1-2.1 3.2-2.1 3.3-4.2 6.7-6.3 10.2-1.2 2-2.6 4.5-4.2 7.5-8.7 16.3-24.9 47.8-31.9 85-5.7 30.3-4 73.1-12.3 92-10 22.6-27.4 33.2-32.2 66.9 0 .1 137.3.7 137.2.6-6.7-10.5-13.5-38.2-9.6-55.5 7.8-34.4 26.8-39.3 34.4-62.3 7.4-22.7-10-35.5 3.6-65.1 17.8-38.7 40.3-85.7 3.8-158.8-.4.4-.5.5-.6.5z" fill="#5b2448"/><path d="M1689.6 1417.5c-.3 1.6-1.8 2.7-3.4 2.4s-2.7-1.8-2.4-3.4c0-.2 2.8-18.1-11.6-41.9-3.2-5.2-6.1-9.6-8.6-13.4-9.8-14.8-15.3-22.9-17-51.3v-.1c-.1-1.6 1.2-3 2.8-3.1s3 1.2 3.1 2.8c1.6 26.8 6.4 34 16 48.4 2.6 3.9 5.5 8.2 8.7 13.6 5.6 9 9.6 19 11.7 29.5 1.8 9.9.8 16.1.7 16.5z" fill="#fff"/><path d="M1774.7 1374.7c-1.3 18.8-11.4 32.9-23 32.2s-19.7-16.2-18.4-35c.6-8.7 3.2-16.9 7.3-22.8 4.4-6.4 9.9-9.7 15.7-9.3 8.7.6 15.4 9.4 17.7 21.7.8 4.3 1 8.8.7 13.2zm-35.8 9.4c1.9 10 6.9 17.4 13.2 17.8 8.5.6 16.7-12 17.7-27.6s-5.3-29.1-13.8-29.7c-4-.3-8 2.3-11.3 7.2-3.6 5.3-5.9 12.5-6.4 20.4-.3 4-.1 8 .6 11.9z" fill="#5b2448"/><path d="M1805.7 1146c1.2 78.3-16.7 274.9-16.8 276.8-.1 1.3-1.3 2.3-2.6 2.2-38.3-2.5-125.3-2.8-167.1-3-22.2-.1-25.2-.1-25.9-.2-1-.2-1.7-.9-2-1.8-.3-1.3.5-2.7 1.8-3 .3-.1.6-.1.9 0 1.2.1 11.8.1 25.1.2 41 .2 125.4.5 165 2.9 2-22.7 17.7-200.6 16.6-273.9-.3-22.1-4.9-52.4-24.3-72.2-.4.1-.8.3-1.4.5-.2.1-.4.2-.7.3-2.7 1.1-5.5 2.4-8.5 3.8-.4.2-.9.5-1.4.7-1 .5-2.1 1.1-3.2 1.7-.7.4-1.4.8-2.2 1.2-.4.2-.8.4-1.3.7-2.2 1.3-4.5 2.6-6.8 4.1-.4.2-.7.4-1.1.7-1.2.8-2.4 1.5-3.5 2.3-.8.6-1.7 1.2-2.6 1.8l-.9.6c-.4.3-.8.6-1.3.9l-.5.4c-.7.5-1.5 1.1-2.2 1.6l-.4.3c-.3.2-.6.5-1 .7-1 .7-1.9 1.5-2.9 2.3-.3.2-.6.4-1 .8l-1.2.9c-.2.2-.5.4-.7.6l-1.3 1.1c-.7.5-1.3 1.1-2 1.6l-.5.4c-.2.2-.4.4-.7.6s-.6.5-.9.8l-2.1 1.8c-.7.6-1.3 1.2-2 1.8-.5.5-1 .9-1.5 1.4l-.5.5c-.7.6-1.4 1.3-2 1.9l-.1.1-.4.4c-.5.5-1.1 1-1.6 1.6l-1.9 1.9-.1.1-.1.1-1.4 1.4-.7.7c-.7.7-1.4 1.4-2.1 2.2-8.5 9-16.3 18.6-23.5 28.8-.3.4-.5.8-.8 1.1l-.2.3c-1.1 1.5-2.2 3.1-3.3 4.8-.7 1-1.4 2.1-2.1 3.2-2.3 3.6-4.3 6.9-6.2 10.1-1.4 2.3-2.7 4.8-4.1 7.3-7.8 14.9-18.7 41.1-26.8 81.8-.3 1.3-1.6 2.2-2.9 1.9s-2.2-1.6-1.9-2.9c8.2-41.3 19.3-68 27.3-83.2 1.4-2.6 2.8-5.2 4.2-7.6 1.9-3.3 4-6.6 6.4-10.3.7-1.1 1.4-2.2 2.1-3.2 1.1-1.7 2.3-3.4 3.3-4.9l.2-.2c.3-.4.6-.9.9-1.2 7.3-10.3 15.2-20.1 23.9-29.3.7-.8 1.4-1.5 2.1-2.2.3-.3.5-.6.8-.8l1.4-1.4.1-.1 2-2 1.6-1.6.5-.5c.7-.7 1.4-1.4 2.1-2l.5-.5c.5-.5 1.1-1 1.6-1.4.7-.6 1.3-1.2 2-1.8s1.4-1.3 2.1-1.8c.3-.3.7-.6.9-.8s.5-.4.7-.6l.4-.4c.7-.6 1.4-1.2 2.1-1.7l1.3-1.1c.2-.2.4-.3.6-.5.4-.4.9-.7 1.2-1 .4-.3.7-.6 1-.8 1-.8 2-1.6 3-2.3.3-.3.7-.5 1-.8l.4-.3c.8-.6 1.5-1.1 2.3-1.7l.5-.4c.4-.3.9-.6 1.3-.9l.9-.6c.9-.6 1.8-1.3 2.7-1.8 1.2-.8 2.3-1.6 3.6-2.4.4-.3.8-.5 1.2-.8 2.3-1.5 4.6-2.9 6.9-4.2.5-.3.9-.5 1.3-.8.8-.4 1.5-.8 2.3-1.2 1.1-.6 2.2-1.2 3.3-1.7.5-.3 1-.5 1.4-.7 3.1-1.5 6-2.8 8.8-4 .3-.1.5-.2.9-.3 1.2-.5 2-.8 2.5-.9h.1c.1 0 .1 0 .2-.1h.1c.9-.5 2-.3 2.6.5 14.1 13.6 21.1 32.1 24.3 49.8 1.9 8.7 2.8 17.7 2.9 26.8z" fill="#5b2448"/><path d="M1698.1 1279.1c.7 4-1.9 7.9-5.9 8.6-1.7.3-3.4 0-4.9-.8-1.6-.9-39-21.5-49.8-71.1-.9-4 1.7-7.9 5.7-8.8.3-.1.6-.1.9-.1 3.8-.2 7.2 2.4 7.9 6.1 9.3 42.5 42 60.8 42.3 60.9 2 1.1 3.4 3 3.8 5.2zm14.7-28.5c-2.1 3.5-6.7 4.6-10.2 2.5-1.7-1-41.9-25.8-50.9-73.9-.7-3.5 1.1-7 4.3-8.4 3.8-1.6 8.1.2 9.7 3.9.2.5.4 1 .5 1.5 7.7 41.6 43.7 63.9 44 64.1 3.6 2.2 4.7 6.8 2.6 10.3zm13.3-39.2c-2.2 3.5-6.7 4.5-10.2 2.3-1.4-.9-35-22.5-41.9-68.5-.6-4 2.2-7.8 6.3-8.4 4-.6 7.7 2.2 8.3 6.2 5.8 39.1 34.9 58 35.2 58.2 3.5 2.2 4.5 6.7 2.3 10.2z" fill="#ffcf2d"/><path d="M1399.5 1420c51.1-57.7 62.6-118.1 69.8-173.1l-48.1-3.2c.1 3.8.3 7.5.3 11.1 1.4 67.1-5.4 114.5-22 165.2z" fill="#9b3c82"/><path d="M1450.2 1092.4c-41.9 6.7-31.4 85.9-29 151.3l75.9 4.6c26.8-93.5 3.6-163.9-46.9-155.9z" fill="#5b2448"/><path d="m765.2 1148.3-10.9-36.6 3.3-6.2 12.7 42.9z" fill="#6ce0dc"/><path d="M582 112c-37.2 4.2-106.9 106.8-106.9 106.8s-41.6-55.2-62.8-64.4c6-25-4.2-51.5-11.1-66-18.5-39.6 33.2-89.8 76.9-57.4 7.6-36.5 69.6-46.3 85.2 1.1 13.1-7.3 28.9-7.8 42.4-1.3 28.7 14.5 34.8 74.5-23.7 81.2z" fill="#5b2448"/><path d="m565.4 31 .6-.3-.6.3zm-25.6 19.8c-.6 1.3-.1 2.8 1.1 3.4.2.1.4.2.6.2 1.1.2 2.2-.3 2.7-1.4 5.6-11.5 13.2-18 20.2-21.7l-1.2.6c-.5-1.7-1.2-3.2-1.8-4.8-7.5 4.3-15.6 11.5-21.6 23.7z" fill="#9b3c82"/><path d="M601.2 188.1c3.4-3.2 9.2-10.3 8.7-15.9-.6-6.5-8.3-4.4-16.6-13.9-4.7-5.4-7.7-19.7-9.5-31-1.3-8.5-1.9-15.4-1.9-15.4s-51.8.4-73 20.3c-9.4 8.8-14 24.1-17.9 37.5-6.2 21-10.8 37.6-29.4 18.8-16.5-16.6-30.8-33.1-51.4-35.4-20.1-2.3-40.2 12.1-42.8 31.9-4.6 34.7 18.4 52.1 42.8 58.1-54.2 36.1-111.9 83.2-111.9 83.2 60.9 53.3 146.6 101.3 146.6 101.3 41.1-77.7 88.9-127.9 88.9-127.9s54.4 10.4 88.9-11.5c13.3-8.4 19.5-22.5 17.9-35.6-3.8-30.4-34.9-26.5-39.4-64.5z" fill="#f4ada2"/><path d="M408.4 248.1c6.6 1.4 23.9 4.2 38.2.3 1.3-.4 2.1-1.8 1.8-3.1-.3-1.3-1.7-2.1-3-1.8-13.4 3.7-30.3.8-36.2-.4-1.4 1.2-2.9 2.5-4.5 3.9.3.3.6.5 1.1.6 0-.1 1 .1 2.6.5z" fill="#9b3c82"/><path d="M490.6 275.4c-5.5 3.7-5.3 34.1 21.1 50.5 12.8-16.2 21.2-25.3 22-26-10.4-2.7-29.6-9.4-43.1-24.5zm30.1-126.3c-.5.1-1 .2-1.4.2-2.6 0-4.7-2.2-4.7-4.8v-2.1c0-.6.1-1.3.1-1.9.1-1.2.4-2.5.7-3.7.6-2.4 1.5-4.7 2.6-7 2.3-4.6 5.7-8.7 9.9-11.8 2.2-1.6 4.5-3 7.1-4 2.5-1 5.2-1.6 8-1.8 2.7-.2 5.4 0 7.9.7 2.5.6 4.9 1.8 7 3.4.6.5 1.1 1 1.5 1.7 1.6 2.8.7 6.3-2.1 7.9l-.8.5c-1.9 1.1-3.6 1.9-5.1 2.7s-2.9 1.6-4.1 2.2c-2.5 1.4-4.7 2.7-7 4.3-2.4 1.5-4.8 3.4-7.4 5.5l-4.1 3.4c-.7.6-1.5 1.2-2.2 1.8l-1.2.9c-.4.3-.8.6-1.2.8zm19.5 13.4c-.7.8-.6 2 .3 2.7 5.1 4.1 24.3 3.5 34.7-3.3 8.5-5.5 4.2-13.2.8-17.4-1.3-1.6-3.6-1.8-5.2-.5l-.1.1c-11.3 9.6-24.4 15.4-29.9 17.9-.2.1-.4.2-.6.5z" fill="#5b2448"/><ellipse cx="517.2" cy="216.1" fill="#e57281" opacity=".52" rx="24.9" ry="25.3"/><ellipse cx="572.3" cy="220.2" fill="#9b3c82" rx="11.2" ry="15.1" transform="matrix(.8529 -.5221 .5221 .8529 -30.7799 331.2127)"/><path d="M436.1 213.8c-11.7-33-38.9-30-40.1-29.9-1.4.2-2.7-.8-2.8-2.2-.2-1.4.8-2.6 2.2-2.8 6.1-.5 12.2.4 17.8 2.6 8.8 3.3 20.7 11.4 27.6 30.6.2.4.2.9.1 1.4-.3 1.4-1.6 2.2-2.9 2-.9-.3-1.6-.9-1.9-1.7z" fill="#9b3c82"/><path d="M778.5 1353.2s-2.5 81.2-4.4 84.4c31.7 3.2 261.4 5.1 261.4 5.1s74.2-.6 96.4-29.8c-14-23.5-30.7-35.9-30.7-35.9l-302.4-21.1z" fill="#fff"/><path d="M829.2 1424.4c-18.9-.3-33.5-9.6-33.3-21.3s15.1-20.5 34-20.2c8.8.1 17 2.3 23.2 6.1 6.6 4 10.2 9.4 10.1 15.2-.1 8.7-8.6 15.9-20.7 18.8-4.4 1-8.8 1.5-13.3 1.4zm-11.2-35.3c-9.9 2.4-17 7.8-17.1 14.1-.1 8.6 12.9 16 28.5 16.3s28.8-6.8 29-15.3c.1-4-2.7-7.8-7.7-10.9-5.5-3.3-12.8-5.2-20.7-5.3-4.2-.2-8.1.2-12 1.1z" fill="#5b2448"/><path d="M957.5 1445.4c-77.4 0-173.9-1.1-184.3-4.8l-1.8-.7.2-1.9c4.6-45.7 7.6-154.3 4.2-191.3l5-.5c3.4 36.7.5 143.1-4 190.1 23.8 4.2 207.8 4.8 268.5 3.4 54.2-1.2 73.1-17.1 84.2-27.4-2.8-6.3-12.2-19.2-15.9-24l4-3c1.5 2 14.9 19.6 17.2 27l.5 1.5-1.1 1.1c-10.7 10-30.6 28.5-88.8 29.8-16.3.4-49.8.7-87.9.7z" fill="#5b2448"/><path d="M1124.2 1394.4c-.4-.7-.9-1.4-1.3-2.1-.3-.4-.5-.8-.8-1.3-1.3-2.1-2.8-4.3-4.5-6.6-.3-.4-.5-.7-.8-1.1-.8-1.1-1.6-2.3-2.5-3.4-.4-.6-.8-1.1-1.3-1.7-.2-.3-.4-.6-.7-.9l-.7-.9-1.4-1.7c-.6-.7-1.2-1.4-1.8-2.2-.3-.4-.7-.9-1.1-1.3-.8-.9-1.6-1.9-2.4-2.8-.3-.3-.5-.6-.8-.9-.3-.4-.7-.8-1.1-1.2-.2-.2-.4-.4-.6-.7l-.9-.9-.3-.3-.6-.6c-.4-.4-.8-.9-1.2-1.3-.3-.4-.7-.7-1-1.1l-.5-.5-.4-.4c-.6-.7-1.3-1.3-1.9-2-.5-.5-1-1-1.4-1.5l-.2-.2-.2-.2c-.2-.2-.3-.4-.5-.5l-1-1c-.2-.2-.4-.3-.5-.5l-.5-.5-.1-.1c-.5-.5-1-.9-1.5-1.4-.2-.2-.3-.3-.5-.4-.4-.4-.8-.7-1.1-1.1-.2-.2-.4-.3-.6-.5-.5-.5-1-.9-1.5-1.4-.2-.2-.4-.3-.5-.5-.1 0-.1-.1-.1-.1-.1-.1-.3-.2-.4-.4-.1-.1-.2-.1-.2-.2-.3-.2-.5-.5-.8-.7s-.5-.5-.8-.7c-.8-.7-1.5-1.4-2.3-2-9.5-8.1-19.6-15.5-30.2-22.1l-1.5-.9c-1.6-1-3.3-2-5-3.1-1.1-.6-2.2-1.3-3.3-1.9-3.4-1.9-6.9-3.9-10.5-5.8-2.1-1.1-4.6-2.4-7.7-3.8-16.8-7.8-49-22.3-86.6-27.4-30.6-4.1-73.2-.2-92.5-7.5-23.1-8.8-34.5-25.6-68.4-28.7-.1 0 3.4 137.2 3.5 137.1 10.2-7.2 40.4-15.5 57.9-12.5 34.8 6 40.6 24.8 64 31.1 23 6.2 34.9-11.8 65.2.2 39.6 15.7 87.6 35.8 158.8-4.4-.3-.2-.4-.3-.4-.5z" fill="#5b2448"/><path d="M782.1 1341.6c-1.6-.2-2.7-1.7-2.5-3.3s1.6-2.7 3.2-2.5c.2 0 18.3 1.8 41.2-13.8 5.1-3.5 9.2-6.6 12.9-9.3 14.2-10.6 22.1-16.4 50.3-19.6h.1c1.6-.1 3.1 1.1 3.2 2.7s-1 3-2.6 3.2c-26.7 3-33.6 8.2-47.5 18.5-3.7 2.8-7.9 5.9-13.1 9.4-8.7 6.1-18.5 10.6-28.8 13.2-9.7 2.3-16 1.6-16.4 1.5z" fill="#fff"/><path d="M920.7 1342.9c-4 .9-8-1.5-8.9-5.5-.4-1.6-.2-3.4.5-4.9.8-1.6 19.5-40.1 68.4-53.4 3.9-1.1 8 1.3 9.1 5.2.1.3.1.6.2.9.4 3.8-2 7.3-5.7 8.2-42 11.5-58.5 45.1-58.7 45.4-.9 2.1-2.7 3.5-4.9 4.1zm29.3 13.2c-3.6-1.9-5-6.4-3-10 .9-1.8 23.5-43.2 71.1-54.7 3.4-.9 7 .7 8.6 3.9 1.8 3.7.2 8.1-3.4 9.9-.5.2-1 .4-1.5.5-41.1 9.8-61.6 47-61.8 47.3-1.9 3.7-6.4 5-10 3.1zm39.8 11.3c-3.6-2-4.8-6.5-2.9-10.1.8-1.5 20.7-36.2 66.2-45.4 4-.8 7.9 1.8 8.7 5.9.8 4-1.8 7.8-5.7 8.6-38.7 7.9-56.1 37.9-56.3 38.1-1.9 3.6-6.4 4.9-10 2.9z" fill="#ffcf2d"/><path d="M987.8 757.5c3.5-10.7-.6-19.5-7.6-26.5 3.6-15.5-7.4-27.8-19.5-36.2-4.9-40.9-56.5-32-56.5-32 11 9.7 8 6.3 21.1 19.9 0 0-.2 15.5-43.1 44.4-7.8 5.3-13.5 29.2 27.9 20.3h.2c-3.3 2.3-6.6 4.6-10.1 7-6.5 4.5-15.9 23.1 12 22.6 2.2-.2 4.3-.5 6.4-.8-6.4 5.4-13.9 22.4 12.8 22 2.6-.2 5.1-.6 7.5-1-5.4 4.4-11.9 18.8 10.6 18.5 26.5-2.5 37.9-15.9 45.2-29.5 6.4-12.2 1.4-21.7-6.9-28.7z" fill="#f4ada2"/><path d="M965.2 698.2c-1.5-1.3-3.1-2.7-4.8-3.9-.7 20.4-11 43.7-50.9 52.7-3.1 2.2-6.4 4.4-9.7 6.7-.1 0-.1.1-.2.2 22.8-3.3 40-10.9 51.1-22.7 8.5-8.9 13.3-20 14.5-33zm18.3 36.5c-1.2-1.8-2.5-3.4-4-4.9-3.9 19.3-18.7 39.8-61.4 45.9-1.7 1.5-3.3 3.5-4.3 5.6 24.4-2.8 42.9-10.1 55-21.8 7.2-7 12.1-15.3 14.7-24.8zm7.9 26c-1.2-1.4-2.5-2.6-4-3.8-2.7 8.6-8.2 17.1-15.8 23.8-6.8 6.1-17.6 13-33.4 15.7-1.3 1.4-2.7 3.4-3.5 5.6 19.3-2.2 32.4-10.4 40.3-17.5 7.5-6.8 13.2-15.1 16.4-23.8z" fill="#9b3c82"/><path d="M1086.1 1037.6c-19.9-16.9-43.8-8.8-71.7 8.2-.5.3-1 .6-1.6 1-21.2 13-51.6 38.9-77.1 54.7 0 0 2.7 14.9 5.2 53.3 49.6-4.1 91.9-16.1 116.1-29 52.5-28.1 52-68.7 29.1-88.2z" fill="#5b2448"/><path d="M941 1154.8c-49.1 2.4-175.5-6.3-175.8-6.4 24-.3 96.1-6.9 174.8-49.6.4 7.7 1.1 42.3 1 56z" fill="#9b3c82"/><path d="M315 886.3c8.7 22.3 42.2 14.5 69.4-14.7-10.4-15.9-12.1-17.8-23.3-33.8-22 14.6-41.1 28.6-46.1 40.5-1.1 2.5-1.1 5.4 0 8z" fill="#5b2448"/><g fill="#f4ada2"><path d="M1037.9 950.4c-78 49.5-179 78.1-270.1 86.4-161.7 14.8-364.9-69.9-428.3-251.4-5.8-16.4 268.6-32.5 286.3-32.6 0 0 9.9 50.3 12.5 68.1 23.5 6.3 43.3 15.1 88.2 34.3 26.5 11.3 62.2 20 91 21.9 24.2 1.6 48.4.7 72.4-2.8 23-3.3 45.7-9 67.6-16.9 19.2-6.4 34.1-13.5 41.8-17.9-.9-6.7-2.2-13.3-3.9-19.8 0 0 36.6 2.4 37 30.3 3.8 4.2 14 13.6 7.2 30 10.6 8.7 9.7 22.6 5.3 30.9 5.6 5.5 16.5 23.7-7 39.5z"/><path d="M639.5 821.8s-2.3.2-3-.9c1 .2 2 .5 3 .9zm317.9 35.7c-21.9 7.9-44.5 13.6-67.6 16.9 22.9-3.9 45.5-9.6 67.6-16.9z"/></g><path d="M1008.8 876.6c-1 .3-1.7 1.3-1.7 2.4 0 1.4 1.1 2.5 2.5 2.5.3 0 .6 0 .8-.1 5.4-2.1 10.2-5.3 14.4-9.3 4-3.8 8.5-9.4 11.4-17.3-1.1-1.4-2.3-2.8-3.8-4.3-5.9 19.6-22.8 25.8-23.6 26.1zm9.7 26.1c-.7.5-1.1 1.3-1.1 2.1 0 1.4 1.1 2.5 2.5 2.5.5 0 1-.1 1.4-.4.8-.5 13.9-9.2 21.9-22.8-1-1.3-2.2-2.5-3.7-3.7-7.4 13.2-20.8 22.1-21 22.3zm7.8 25c-.8.4-1.4 1.3-1.4 2.2 0 1.4 1.1 2.5 2.5 2.5.4 0 .8-.1 1.1-.3.7-.4 11.5-6.1 19.4-17-1.2-1.7-2.4-3-3.4-4v-.1c-7.1 10.8-18 16.6-18.2 16.7z" fill="#9b3c82"/><path d="M419.4 420.9c1.5.1 3 .2 4.5.4 98.9 17.3 163 167.6 202.3 332.5C509.7 758 337.6 836 316.7 874.4c-1.3 2.3-2.2 4.7-2.7 7.3-6.1-23.1-10.9-46.5-14.4-70.2-.2-1.1-.3-2.1-.5-3.2-28.3-192.9 23.7-392.6 120.3-387.4z" fill="#f94f46"/><path d="M626 753.8c-59.6 12.3-151 43.6-241.7 117.8-1.6-2.1-17.6-23.9-23.3-33.8 94.6-55.5 197.9-81.6 265-84z" fill="#9b3c82"/><path d="M347.7 457.3c20.8-28.1 45.3-41.9 72.8-40.9 5.6.7 11.1 1.8 16.4 3.5 1.6 1.9 6.3 5.4 7.9 7.2-5.7-2.1-18-5.5-20.9-5.8-1.2-.1-2.4-.2-3.6-.2-26.1-.9-49.4 12.2-69.2 39.2-58.6 79.3-73.1 259.7-34.2 414.4-1.3 2.3-2.2 4.7-2.6 7.3-6.1-23.2-10.9-46.7-14.6-70.4-.2-1.1-.3-2.1-.5-3.2-20.7-138.1-2.5-282 48.5-351.1z" fill="#f4ada2"/><path d="M638.1 815.7c.2 1.7.5 3.4.7 5.2-1.8-.3-3.7-.5-5.5-.8-29.8-3.8-51.5-1.4-51.8-1.4-1.4.2-2.6-.8-2.8-2.2s.8-2.6 2.2-2.8c.4 0 24.5-2.6 57.2 2z" fill="#9b3c82"/><path d="m373.7 431.9-3 4-109.1-81c1.3-1.1 2.6-2.2 4-3.3z" fill="#f4ada2"/><path d="M929.5 1024.6s6.8 26.2 10 75.2c.3 5.4.7 11 .9 16.9.5 11.7.7 24.3.7 38.1-.4 47.2-4.2 94.3-11.3 140.9-.1.6-.2 1.2-.3 1.7" fill="none"/></svg></g><g transform="translate(1161.0 1105.0) rotate(0.0 313.0 189.5) scale(0.9993965305294885 0.9987956474646666)"><svg width="626.378" height="379.457" viewBox="0 0 626.378 379.457"><path d="M614.271 9.029 439.9 98.591c-43.335-46.191-115.57-76.45-197.377-76.45C109.962 22.141 2.5 101.57 2.5 199.549s107.462 177.408 240.023 177.408 240.023-79.428 240.023-177.408a134.413 134.413 0 0 0-7.749-44.862z" fill="#fff"/><path d="M242.523 379.458c-64.644 0-125.446-18.628-171.208-52.451C25.327 293.015 0 247.75 0 199.55s25.327-93.466 71.315-127.457c45.762-33.824 106.564-52.452 171.208-52.452 78.61 0 152.415 28.329 197.9 75.871L626.377 0 477.66 155.312a137.016 137.016 0 0 1 7.385 44.238c0 48.2-25.327 93.465-71.315 127.457-45.761 33.823-106.564 52.451-171.207 52.451zm0-354.817C111.552 24.641 5 103.105 5 199.55s106.552 174.908 237.523 174.908 237.522-78.464 237.522-174.908a132.149 132.149 0 0 0-7.605-44.032l-.512-1.45L602.165 18.057l-162.8 83.62-1.289-1.375c-44.445-47.376-117.547-75.661-195.553-75.661z" fill="#66b0f0"/></svg></g><g transform="translate(966.0 367.0) rotate(0.0 246.5 470.0) scale(0.9985882028855756 0.9993472348912519)"><svg width="493.697" height="940.614" viewBox="0 0 493.697 940.614"><g data-name="Слой 5"><g><path style="fill:#ffcf2d" d="M432.618 197.866h5v742.747h-5z"/><path d="M463.205 167.927a30.527 30.527 0 0 0-30.493 30.493h5a25.493 25.493 0 1 1 26.206 25.48c-.791.033.5-.039-.632.02-44.632 2.311-92.451-6.339-129.617-32.522-.454-.319-.907-.646-1.36-.973q2.166-1.611 4.264-3.244c30.6-23.852 55.4-59.611 54.4-99.809-.834-33.662-21.145-63.084-51.742-76.809C305.532-4.559 259.1-5.489 231.039 21.349A106.889 106.889 0 0 0 213.372 43.9c-8.1-6.437-18.085-9.926-28.621-5.97-17.095 6.418-26.7 26.977-32.087 43.148a123.313 123.313 0 0 0-4.811 55.856c3.414 24.452 14.4 48.336 32.1 65.26-15.271.36-31.2-3.905-44.467-9.47a138.326 138.326 0 0 1-14.942-7.326 70.658 70.658 0 0 0 9.04-19.757c6.834-23.489 7.848-51.782.043-75.18-2.7-8.1-7.113-17.253-15.368-20.91C101.78 64.028 86.422 75.15 79.5 84.759c-11.9 16.525-9.341 39.457-2.664 57.493 5.706 15.416 14.655 29.636 27.773 39.7a127.205 127.205 0 0 0 7.393 5.252 21.964 21.964 0 0 1-7.807 5.432c-9.17 3.61-18.856-1.575-25.994-7.148-9.965-7.779-16.79-18.615-27.043-26.061-6.734-4.891-14.708-8.536-23.131-8.846-10.784-.4-20.056 5.3-27.2 12.957-2.633 2.821 1.6 7.073 4.242 4.243 8.8-9.428 20.058-13.9 32.5-9.118 7.374 2.832 13.917 7.973 19.257 13.724 9.1 9.8 17.785 20.45 30.654 25.407 12.362 4.762 22.1.4 29.3-7.587 20.643 12.385 45.952 19.968 69.436 17.449a85.2 85.2 0 0 0 22.629 12.968c40.1 15.33 84.768-2.843 118.494-26.607a171.889 171.889 0 0 0 54.671 26.811c25.771 7.423 54.5 9.464 81.195 8.082a30.493 30.493 0 0 0 0-60.986Zm-359.788 5.289c-12.446-11.265-20.568-28-24.274-44.174-4.174-18.218-1.916-39.623 15.431-50.211 7.855-4.8 15.982-7.227 22.515.3 5.908 6.811 8.276 16.632 9.808 25.277a137.366 137.366 0 0 1 1.273 35.358c-.964 11.415-3.143 23.078-7.663 33.658a56.911 56.911 0 0 1-4.79 9.07 92.189 92.189 0 0 1-12.3-9.278ZM242.878 19.261C257.547 8.8 275.142 5.922 292.811 6.48c33.124 1.046 66.7 14.837 82.945 45.234 15.537 29.074 9.915 63.956-6.753 91.213-10.586 17.312-25.284 31.912-41.7 43.739a161.438 161.438 0 0 1-13.286-11.6q3.105-3.015 6.029-6.147c12.711-13.634 23.92-29.927 28.912-48.08 4.434-16.125 2.612-33.241-8.544-46.238C334.1 67.25 325.39 60.82 315.669 59.44a32.772 32.772 0 0 0-25.441 6.619c-16.741 13.425-18.71 38.775-14.156 58.218 3.485 14.872 11.45 28.024 20.707 39.982q4.2 5.426 8.851 10.408c-10.506 9.487-22.663 18.033-36.085 22.34-13.853 4.446-29.893 1.426-42.571-5.258q-1.867-.984-3.608-2.057a53.266 53.266 0 0 0 2.2-2.562c12.912-16.2 16.54-37.862 17-58.033.567-24.828-3.688-52.209-18.057-73.085a59.743 59.743 0 0 0-6.533-7.951c6.409-11.227 14.468-21.361 24.902-28.8Zm66.913 151.52c-11.2-11.811-20.6-25.569-25.665-40.256-6.321-18.322-7.09-43.893 8.161-58.332 6.658-6.3 15.734-8.323 24.606-6.475 8.617 1.8 17.055 9.371 21.877 16.544 19.779 29.427-7.558 67.759-28.512 88.074-.158.149-.313.297-.467.445ZM202.964 83.4a204.983 204.983 0 0 1 12.083-29.91 74.637 74.637 0 0 1 10.946 17.383c10.453 22.605 12.607 49.6 9.43 74.06-1.931 14.868-6.7 30.216-17.037 41.329-30.379-23.38-26.315-69.393-15.422-102.862Zm-33.248 97c-18.63-29.491-22.155-67.972-10.253-100.632 5.138-14.1 14.916-35.015 31.763-37.36 7.373-1.026 13.836 1.866 19.276 6.531-8.218 15.176-13.811 32.087-17.652 48.136-5.319 22.231-6.883 46.743 2.28 68.209a64.981 64.981 0 0 0 19.143 24.92c-.032.028-.061.058-.094.086a50.819 50.819 0 0 1-26.094 11.247 90.9 90.9 0 0 1-18.369-21.137Zm91.058 37.639c-18.177 3.8-37.523 2.846-54.552-4.972a79.274 79.274 0 0 1-11.87-6.774 56.955 56.955 0 0 0 24.822-12.49c16.564 11.079 37.823 14.964 56.9 7.172 12.4-5.065 23.719-12.909 33.744-21.966a157.252 157.252 0 0 0 12.516 11.148c-18.557 12.651-39.579 23.291-61.56 27.885Z" style="fill:#ffcf2d"/></g></g></svg></g><g transform="translate(1287.0 1225.0) rotate(0.0 116.5 81.5) scale(1.017023134002619 1.0162094763092269)"><svg width="229.1" height="160.4" viewBox="0 0 229.1 160.4"><ellipse cx="58.2" cy="80.2" fill="#9b3c82" rx="58.2" ry="80.2"/><path d="M191.4 40.9v80.2h-92l-9.5-.1c-.9.1-1.8.1-2.6-.1-.2 0-.4-.1-.5-.1-8.6-2.8-14.3-23.5-15-37.4-1.8-31.2 5.8-39.8 10.4-42.2 1.1-.6 109.2-.3 109.2-.3z" fill="#9b3c82"/><g fill="#ffcf2d"><path d="M85.8 121.1c-3.6 3.1-7.2 4.6-10.6 4.6-1.2 0-2.4-.2-3.6-.6-2.4-.8-4.5-2.3-6.2-4.2-8.5-9.2-11.6-29.3-12-37-1.4-25.6 3.4-37.6 8.9-43.2 1.2-1.2 2.6-2.3 4.2-3.1 5.6-2.8 12.5-1.8 18.5 2.7l-.2.3H74.3c-.7-.1-1.4-.1-2.2 0-1.2.1-2.4.5-3.5 1-4.7 2.4-12.2 11-10.6 42 .7 13.7 6.4 34.3 15 37.1.2.1.4.1.5.1.9.2 1.7.2 2.6.1z"/><path d="M94.9 121.1c-3.6 3.1-7.2 4.6-10.6 4.6-1.2 0-2.4-.2-3.6-.6-2.4-.8-4.5-2.3-6.2-4.2-8.5-9.2-11.6-29.3-12-37-1.4-25.6 3.4-37.6 8.9-43.2 1.2-1.2 2.6-2.3 4.2-3.1 5.6-2.8 12.5-1.8 18.5 2.7l-.2.3H83.4c-.7-.1-1.4-.1-2.2 0-1.2.1-2.4.5-3.5 1-4.7 2.4-12.2 11-10.6 42 .7 13.7 6.4 34.3 15 37.1.2.1.4.1.5.1.9.2 1.7.2 2.6.1z"/><path d="M113 121.1c-3.6 3.1-7.2 4.6-10.6 4.6-1.2 0-2.4-.2-3.6-.6-2.4-.8-4.5-2.3-6.2-4.2-8.5-9.2-11.6-29.3-12-37-1.4-25.6 3.4-37.6 8.9-43.2 1.2-1.2 2.6-2.3 4.2-3.1 5.6-2.8 12.4-1.4 18.4 3.2l-10.6-.1c-1.9-.1-3.9.2-5.6 1-4.7 2.4-12.2 11-10.6 42 .7 13.7 6.4 34.3 15 37.1.2.1.4.1.5.1.9.2 1.7.2 2.6.1z"/><path d="M121 124.7c-.1 0-.2.1-.4.1-3.6 1.1-5.3-.8-6.1-2.3-6.8-16.2-13.4-47.9-1.6-81.6.1-.2.1-.3.2-.5 1-1.6 2.8-2.7 4.7-2.9.8.7 1.1 1.8.7 2.8-.2.4-.3.8-.4 1.2-15.5 42.1.1 77.4 2.9 83.2z"/></g><ellipse cx="169.8" cy="80.2" fill="#9b3c82" rx="59.2" ry="80.2"/><ellipse cx="169.8" cy="80.2" fill="#ffcf2d" rx="29.8" ry="40.4"/><ellipse cx="169.8" cy="80.2" fill="#9b3c82" rx="15.1" ry="20.5"/><path d="M119.8 37.5c-.8 1.6-1.3 3-1.7 3.9-.5 1.2-.7 1.8-.7 1.8l-4.1-1.2-.3-1.1v-.1l.2-.4c1-1.6 2.8-2.7 4.7-2.9.5-.1 1.2-.1 1.9 0z" fill="#ffcf2d"/></svg></g></svg>