<svg xmlns="http://www.w3.org/2000/svg"  viewBox="0 0 64 64" width="64px" height="64px"><path fill="#c4a2fc" d="M44,39.9999v-8H40v8a.99974.99974,0,0,1-1,1H31v4h8a.99973.99973,0,0,1,1,1v8h4v-8a.99974.99974,0,0,1,1-1h8v-4H45A.99974.99974,0,0,1,44,39.9999Z"/><path fill="#c4a2fc" d="M42,22.9999a20,20,0,1,0,20,20A20.0226,20.0226,0,0,0,42,22.9999Zm13,23a.99974.99974,0,0,1-1,1H46v8a.99974.99974,0,0,1-1,1H39a.99974.99974,0,0,1-1-1v-8H30a.99974.99974,0,0,1-1-1v-6a.99974.99974,0,0,1,1-1h8v-8a.99974.99974,0,0,1,1-1h6a.99973.99973,0,0,1,1,1v8h8a.99973.99973,0,0,1,1,1Z"/><path fill="#151a6a" d="M48.89459,32.55229,44.00005,22.763v-.76369A20.98629,20.98629,0,0,0,21.87062,1.02825,21.24309,21.24309,0,0,0,2,21.97591,20.93348,20.93348,0,0,0,7.57275,36.24767,20.23272,20.23272,0,0,1,13,49.99988a1,1,0,1,0,2,0A22.22706,22.22706,0,0,0,9.0415,34.89022,18.9411,18.9411,0,0,1,4,21.97787,19.21716,19.21716,0,0,1,21.97512,3.02634a18.99121,18.99121,0,0,1,20.02493,18.973v1a1.00068,1.00068,0,0,0,.10547.44728l4.27637,8.55289H43.00005a.99975.99975,0,0,0-1,1v4.00008a3.00331,3.00331,0,0,1-3,3.00005H33a.99975.99975,0,0,0-1,1v9.00017a1,1,0,1,0,2,0V41.99973h5a5.00594,5.00594,0,0,0,5-5.00009V33.99958h4A1.001,1.001,0,0,0,48.89459,32.55229Z"/><path fill="#151a6a" d="M37.97465,22.03646a5.4962,5.4962,0,0,0-5-6.01213A5.49612,5.49612,0,0,0,27.5,10.99915a4.81228,4.81228,0,0,0-.72852.05664,5.449,5.449,0,0,0-8.3553-.207,5.46787,5.46787,0,0,0-3.82685-.77546,5.48328,5.48328,0,0,0-3.18652,9.07146,4.97547,4.97547,0,0,0-.72169,4.20711,5.0785,5.0785,0,0,0,4.97657,3.64753l.0752.09375-1.709,7.6896a.99986.99986,0,1,0,1.95215.4336l1.709-7.6896a2.07673,2.07673,0,0,0-2.02735-2.52739,3.11836,3.11836,0,0,1-3.04492-2.16508,3.00226,3.00226,0,0,1,.85791-3.02935.99928.99928,0,0,0-.07422-1.52933,3.46318,3.46318,0,0,1-1.34326-3.39557,3.501,3.501,0,1,1,6.35792,2.56255,1.00026,1.00026,0,0,0,1.66211,1.1133,5.44469,5.44469,0,0,0-.17847-6.32709,3.42674,3.42674,0,0,1,5.58473.46174.9972.9972,0,0,0,1.11328.4463,3.4362,3.4362,0,0,1,4.3833,2.95123L31,16.52464a3.50465,3.50465,0,0,1-3.5,3.47468,1,1,0,0,0,0,2,5.50693,5.50693,0,0,0,5.27918-3.97065A3.46846,3.46846,0,0,1,35.98344,21.847a3.63327,3.63327,0,0,1-3.67677,3.1524H24.60451a2.9826,2.9826,0,0,0-2.92871,2.34965L20.02394,34.7828a.99986.99986,0,1,0,1.95215.4336l1.65186-7.43374a.99489.99489,0,0,1,.97656-.78321h7.70216A5.64844,5.64844,0,0,0,37.97465,22.03646Z"/></svg>