<svg xmlns="http://www.w3.org/2000/svg"  viewBox="0 0 64 64" width="64px" height="64px"><path fill="#ffdaaa" d="M55,23v8c0,14.5-12,14.5-12,29v1H32V54L17.67,59.06A2,2,0,0,1,15,57.17V42H9l6-6V23c0,2.21,8.95,4,20,4S55,25.21,55,23Z"/><path fill="#ffeb99" d="M18.13,20.86c-.41.13-.78.26-1.11.4A5.2,5.2,0,0,1,16,18c0-2.21,1.34-4,3-4a6,6,0,0,1,6-6,5.521,5.521,0,0,1,3,1,4.272,4.272,0,0,1,4-3,.57.57,0,0,1,.13.01A3.984,3.984,0,0,1,35.9,9.1l.4,1.96A4.049,4.049,0,0,1,37,11a4.272,4.272,0,0,1,4,3,5.521,5.521,0,0,1,3-1,6,6,0,0,1,6,6,3.011,3.011,0,0,1,2.65,2.13C54.15,21.68,55,22.32,55,23c0,2.21-8.95,4-20,4s-20-1.79-20-4c0-.63.73-1.22,2.02-1.74A2.389,2.389,0,0,0,18,22,4.744,4.744,0,0,1,18.13,20.86Z"/><path fill="#c0ab91" d="M52,15c0,1.82-.76,3.51-2,4a6,6,0,0,0-6-6,5.521,5.521,0,0,0-3,1,4.272,4.272,0,0,0-4-3,4.049,4.049,0,0,0-.7.06L35.9,9.1a3.984,3.984,0,0,0-3.77-3.09A3.983,3.983,0,0,1,36,3a4.272,4.272,0,0,1,4,3,5.521,5.521,0,0,1,3-1,6,6,0,0,1,6,6C50.66,11,52,12.79,52,15Z"/><path d="M24,32a2,2,0,0,1-2-2H20a4,4,0,0,0,8,0H26A2,2,0,0,1,24,32Z"/><path d="M53.41,20.349a4.437,4.437,0,0,0-1.469-1.716A6.308,6.308,0,0,0,53,15c0-2.395-1.282-4.346-3.053-4.865A7.01,7.01,0,0,0,43,4a5.8,5.8,0,0,0-2.523.595A5.267,5.267,0,0,0,36,2a4.977,4.977,0,0,0-4.6,3.037A5.3,5.3,0,0,0,27.523,7.6,5.8,5.8,0,0,0,25,7a7.01,7.01,0,0,0-6.947,6.135C16.282,13.654,15,15.605,15,18a6.724,6.724,0,0,0,.6,2.825A2.641,2.641,0,0,0,14,23V35.586L8.293,41.293A1,1,0,0,0,9,43h5V57.173A3,3,0,0,0,18,60l13-4.588V61a1,1,0,0,0,1,1H43a1,1,0,0,0,1-1V60c0-6.89,2.8-10.277,5.771-13.862C52.833,42.437,56,38.61,56,31V23C56,21.545,54.355,20.727,53.41,20.349ZM19,15a1,1,0,0,0,1-1,5.006,5.006,0,0,1,5-5,4.555,4.555,0,0,1,2.474.85,1,1,0,0,0,1.487-.575A3.294,3.294,0,0,1,32,7a2.985,2.985,0,0,1,2.925,2.324l1.95-.448A4.972,4.972,0,0,0,33.56,5.245,2.989,2.989,0,0,1,36,4a3.294,3.294,0,0,1,3.039,2.275,1,1,0,0,0,1.487.575A4.555,4.555,0,0,1,43,6a5.006,5.006,0,0,1,5,5,1,1,0,0,0,1,1c1.084,0,2,1.374,2,3a4.969,4.969,0,0,1-.341,1.845A7.012,7.012,0,0,0,44,12a5.8,5.8,0,0,0-2.523.6A5.267,5.267,0,0,0,37,10a4.978,4.978,0,0,0-4.875,3.876l1.95.448A2.985,2.985,0,0,1,37,12a3.294,3.294,0,0,1,3.039,2.275,1,1,0,0,0,1.487.575A4.555,4.555,0,0,1,44,14a5.006,5.006,0,0,1,5,5,1,1,0,0,0,1,1c1.084,0,2,1.374,2,3h1.984c-.611,1.1-7.315,3-18.984,3-11.775,0-18.494-1.933-19-2.934v-.03a2.211,2.211,0,0,1,.829-.593c.07.056.137.12.211.17.018.193.033.387.067.572l1.966-.37A4.444,4.444,0,0,1,19,22c0-1.626.916-3,2-3a1,1,0,0,0,1-1,5.006,5.006,0,0,1,5-5,4.555,4.555,0,0,1,2.474.85l1.052-1.7A6.536,6.536,0,0,0,27,11a7.01,7.01,0,0,0-6.947,6.135A4.273,4.273,0,0,0,17.362,19.9,4.961,4.961,0,0,1,17,18C17,16.374,17.916,15,19,15ZM54,31c0,6.89-2.8,10.277-5.771,13.862C45.167,48.563,42,52.39,42,60H33V54a1,1,0,0,0-1.333-.943L17.333,58.116A1,1,0,0,1,16,57.173V42a1,1,0,0,0-1-1H11.414l4.293-4.293A1,1,0,0,0,16,36V25.367C21.113,27.963,34.31,28,35,28s13.887-.037,19-2.633Zm0-8.031v0h0Z"/><path d="M25.125,19.876l1.95.448A2.985,2.985,0,0,1,30,18a3.294,3.294,0,0,1,3.039,2.275,1,1,0,0,0,1.487.575A4.555,4.555,0,0,1,37,20c1.923,0,3.288,1.12,4.056,3.329l1.888-.658C41.9,19.659,39.786,18,37,18a5.8,5.8,0,0,0-2.523.595A5.267,5.267,0,0,0,30,16,4.978,4.978,0,0,0,25.125,19.876Z"/></svg>