<svg xmlns="http://www.w3.org/2000/svg"  viewBox="0 0 512 512" width="64px" height="64px"><path fill="#f0f3f7" d="M476.33,462.83C489.18,451,497,435.24,497,418c0-37-36-67-80.5-67S336,381,336,418s36,67,80.5,67a94.22,94.22,0,0,0,32.4-5.65L477,496Z"/><polyline fill="#ffcc71" points="297 296 285.3 360.4 333.1 354.53 221.81 495.97 238.66 390.19 188.9 398.81 205.35 321.22"/><path fill="#ffd7cf" d="M338.79,39.79S385,27,425,53c22.47,14.6,48,55,36,95l-.32.29C484,174,484,208,484,208s13,106-120,79c0,0-4,40-63,40-21.43,0-37.85-7.26-50.06-16.5C232.88,322,204,320,204,320s-63.16,2-64-48h0l-44,4c-69,0-67-69-67-69s-4-55.83,46.77-79.89C75.13,110.85,79.58,88.4,103,70c22.15-17.41,49-18.4,69.5-15.45C172.5,54.55,194,18,252,15,288.72,13.1,318.74,22.92,338.79,39.79Z" data-name="&lt;编组&gt;"/><path fill="#3f456b" d="M368,267c96,25,115.67-43.33,115.67-43.33C482.33,266.33,450,287,420.45,290.35S364,287,364,287c-6,21-18,37-56.34,39.81S252,310,252,310c-24,14-56.78,9.63-56.78,9.63C138.44,316.26,140,271,140,271,34,306,29,207,29,207s9,53,65,55c0,0,33,1,51-11,0,0-2,72,93,48l-3-3c-4-5-12-19-12-19s31,38,86,30,59-48,59-48Z" opacity=".1"/><path fill="#3f456b" d="M179,148s-5,50,42,54c0,0,28,2,47-18a51.3,51.3,0,0,1-17,23s10,4,14,8c0,0,30-53,109-34,0,0,36-37,65-5,0,0-43-15-54,24,0,0-27-15-66-2s-50,41-50,41-17-19-54-20C215,219,163,219,179,148Z" opacity=".1"/><path fill="#3f456b" d="M94,207s5-19,40-21,58,20,68,34a125.11,125.11,0,0,0-32,7S154,183,94,207Z" opacity=".1"/><path fill="#3f456b" d="M429,56.25S459,98,444,133l17,15S478,95.5,429,56.25Z" opacity=".1"/><path fill="#3f456b" d="M229,148s3-22,39-31c0,0,28-5,45,7,0,0,14-16,53-18s51,12,54,17c0,0-64-21-105,19C315,142,277,111,229,148Z" opacity=".1"/><path fill="#3f456b" d="M186,97s58-49,118-10c0,0-71-12-104,26Z" opacity=".1"/><ellipse cx="260.5" cy="36.5" fill="#fff" opacity=".3" rx="41.5" ry="20.5"/><ellipse cx="374.5" cy="138.5" fill="#fff" opacity=".3" rx="41.5" ry="16.5" transform="rotate(-6.78 374.323 138.473)"/><ellipse cx="328.27" cy="221" fill="#fff" opacity=".3" rx="41.5" ry="23.04" transform="rotate(-6.78 328.102 220.948)"/><ellipse cx="152.58" cy="107.14" fill="#fff" opacity=".3" rx="24.79" ry="17.15" transform="rotate(-6.78 152.476 107.12)"/><ellipse cx="49.58" cy="177.14" fill="#fff" opacity=".3" rx="24.79" ry="17.15" transform="rotate(-60 49.572 177.138)"/><ellipse cx="204.27" cy="242" fill="#fff" opacity=".3" rx="41.5" ry="23.04" transform="rotate(-1.9 204.402 241.965)"/><path fill="#3f456b" d="M201.65,338.66S230,340,251,330c0,0,11.06,13.07,37.53,12l3.14-15S269,325,252,311c0,0-15.29,10.44-46.65,10.22Z" opacity=".2"/><path fill="#f0f3f7" d="M36.67,364.83C23.82,353,16,337.24,16,320c0-37,36-67,80.5-67S177,283,177,320s-36,67-80.5,67a94.22,94.22,0,0,1-32.4-5.65L36,398Z"/><path fill="#fff" d="M176,321s-11-53-81-53-79,55-79,55-2-69,79-69S176,321,176,321Z" opacity=".5"/><path fill="#fff" d="M496,418s-11-53-81-53-79,55-79,55-2-69,79-69S496,418,496,418Z" opacity=".5"/><path fill="#3f456b" d="M465.07,473.29l10.58,21.91-26.19-14.81c-9,2.89-19.69,4.61-32.46,4.61-81,0-81-67-81-67s11,53,81,53,79-55,79-55S497.09,453.61,465.07,473.29Z" opacity=".15"/><path fill="#3f456b" d="M47.93,375.29,37.35,397.2l26.19-14.81c9,2.89,19.69,4.61,32.46,4.61,81,0,81-67,81-67s-11,53-81,53-79-55-79-55S15.91,355.61,47.93,375.29Z" opacity=".15"/><g><path fill="#3f456b" d="M301,332c-25.56,0-48.32-10.07-65.81-29.12a100.74,100.74,0,0,1-18.86-29.1,5,5,0,0,1,9.34-3.57h0a92.51,92.51,0,0,0,17.13,26.17c15.73,17,35.31,25.62,58.2,25.62,53.85,0,58-35.14,58-35.5a5,5,0,0,1,6-4.4c43.11,8.75,74.68,4.2,93.85-13.51C483.3,246,479.08,209,479,208.61a4.17,4.17,0,0,1,0-.61c0-.35-.4-35.86-25.64-60.08-17.12-16.42-41.74-24.13-73.17-22.92h-.32c-.36,0-37.26-.61-60.41,21.61a5,5,0,0,1-6.23.55A77.92,77.92,0,0,0,285.82,137c-20.71-3.4-38.95,2.82-54.24,18.49a5,5,0,0,1-7.16-7c22.18-22.73,46.72-24.14,63.41-21.31a89.08,89.08,0,0,1,27.54,9.62C340.9,114.81,376.78,115,380,115c34.24-1.29,61.29,7.39,80.41,25.79,27.31,26.28,28.57,62.9,28.63,66.9.45,4.14,3.87,43.05-23.38,68.24-20.9,19.32-53.78,25-97.79,16.9a48.57,48.57,0,0,1-9.37,17.38C343.38,328.22,318.89,332,301,332Z"/><path fill="#3f456b" d="M140.5,268.75a5.48,5.48,0,0,1-.7,0,5,5,0,0,1-4.26-5.66c2.82-19.9,16.61-34.71,39.88-42.84A118.3,118.3,0,0,1,208.83,214c2.48-.11,35.93-1.31,58.38,16.61,5.78-11,21.24-31.73,57.75-39.5,46.31-9.85,70.69,9,74,11.87a45.79,45.79,0,0,1,12.57,12.92c5.23,8,10.39,21.58,5.25,40.42a5,5,0,0,1-9.64-2.64c7.91-29-13.53-42.26-13.75-42.39a4.29,4.29,0,0,1-.8-.6c-.86-.76-22-19.07-65.59-9.8-43.79,9.32-53.16,39.23-53.25,39.53a5,5,0,0,1-8.41,2C246.19,222.34,209.62,224,209.26,224h-.19c-.57,0-58.1,1.39-63.62,40.45A5,5,0,0,1,140.5,268.75Z"/><path fill="#3f456b" d="M209.21,325.14c-2.73,0-4.62-.1-5.31-.14A101.5,101.5,0,0,1,176,321.19a5,5,0,1,1,2.75-9.62A92.27,92.27,0,0,0,203.85,315h.5c.27,0,27.48,1.74,43.9-8.73a5,5,0,1,1,5.37,8.44C239.17,323.93,218.91,325.14,209.21,325.14Z"/><path fill="#3f456b" d="M54.1,268a5,5,0,0,1-3.18-1.15C25,245.41,24,210.3,24,207.17a97.29,97.29,0,0,1,4.61-32.68c7.46-23.6,23.11-41.59,45.26-52a5,5,0,1,1,4.26,9C58.4,140.81,45,156.16,38.25,177.17A88.2,88.2,0,0,0,34,206.65c0,.11,0,.24,0,.35,0,.32.37,33.22,23.29,52.19A5,5,0,0,1,54.1,268Z"/><path fill="#3f456b" d="M80,234a5.07,5.07,0,0,1-1.33-.18,5,5,0,0,1-3.5-6.1c.33-1.21,8.43-29.61,48.69-30.7s50.55,27.11,51,28.31a5,5,0,0,1-9.42,3.33c-.37-1-8.7-22.5-41.27-21.64s-39.06,22.42-39.32,23.33A5,5,0,0,1,80,234Z"/><path fill="#3f456b" d="M80,154a5,5,0,0,1-4.62-3.09,76.6,76.6,0,0,1-4.63-29.2c.49-15.31,6-37.4,29.16-55.64,18.24-14.33,42.42-20.18,69.93-16.91A138.72,138.72,0,0,1,206,58.42a5,5,0,1,1-4,9.16c-.56-.25-56.8-24.36-95.89,6.35-38.41,30.18-22.17,71.43-21.46,73.17a5,5,0,0,1-2.73,6.52A5,5,0,0,1,80,154Z"/><path fill="#3f456b" d="M364,84a5,5,0,0,1-4.84-3.76c-4.72-18.4-16.83-33.87-35-44.74C304.78,23.93,279.92,18.56,252.26,20c-28.44,1.47-47.42,11.47-58.34,19.6C182.07,48.41,176.85,57,176.8,57.1A5,5,0,0,1,168.19,52c.93-1.59,23.55-38.91,83.55-42,29.65-1.54,56.47,4.31,77.55,16.91C349.48,39,363.53,57.05,368.84,77.76a5,5,0,0,1-3.6,6.08A4.8,4.8,0,0,1,364,84Z"/><path fill="#3f456b" d="M461,153a5.17,5.17,0,0,1-1.44-.21,5,5,0,0,1-3.35-6.23c6.4-21.34.9-40.88-4.84-53.51-6.84-15.06-17.72-28.46-29.1-35.86-37.55-24.41-81.71-12.7-82.15-12.58A5,5,0,0,1,337.46,35c2-.55,48.85-13.09,90.26,13.83,23,15,51.07,57.31,38.07,100.63A5,5,0,0,1,461,153Z"/><path fill="#3f456b" d="M326,269a4.93,4.93,0,0,1-2.31-.57c-20.22-10.54-36.85-.31-37-.2a5,5,0,0,1-7.33-2.42c-6.37-16.39-13.59-23-13.66-23.07a5,5,0,0,1,6.61-7.5c.33.29,7.47,6.65,14.29,22a49.05,49.05,0,0,1,41.73,2.37A5,5,0,0,1,326,269Z"/><path fill="#3f456b" d="M364,292a5,5,0,0,1-4.81-6.37h0c0-.13,3.81-13.53,3.81-26.63a5,5,0,0,1,10,0,121.25,121.25,0,0,1-4.19,29.37A5,5,0,0,1,364,292Z"/><path fill="#3f456b" d="M95.79,214.67a5,5,0,0,1-4.86-3.85c-3.66-15.49-1.87-28.17,5.33-37.71,11.3-15,31.65-16.07,32.51-16.11a5,5,0,0,1,.47,10h0c-.16,0-16.61,1-25,12.2-5.28,7-6.48,16.91-3.54,29.33a5,5,0,0,1-4.87,6.15Z"/><path fill="#3f456b" d="M420.79,129.23a5,5,0,0,1-5-5c-.17-27.18-20.06-32.2-20.91-32.4a5,5,0,0,1,2.21-9.75c9.85,2.19,28.52,13.8,28.7,42.08a5,5,0,0,1-5,5Z"/><path fill="#3f456b" d="M385.27,205.4l-.51,0a5,5,0,0,1-4.47-5.43c.08-.88,2.31-21.75,26.13-29.69s41.09,3.58,45.05,11.5a5,5,0,1,1-8.94,4.48c-1.59-3.18-13.86-12.86-32.95-6.5-17.47,5.83-19.27,20.56-19.34,21.18A5,5,0,0,1,385.27,205.4Z"/><path fill="#3f456b" d="M221.08,224.31h-1.29c-20.11-.52-35.52-10.28-43.39-27.49-10.67-23.34-5.66-56.87,11.67-78,14.16-17.27,36.77-30.26,62-35.65,26.13-5.58,51.47-2.57,71.34,8.47a5,5,0,0,1-4.86,8.74c-36.11-20.06-93.68-8.25-120.77,24.78-14.82,18.08-19.35,47.72-10.3,67.5,4.38,9.58,13.93,21.12,34.55,21.65,24.4.65,39.65-21.21,43.21-31.88a5,5,0,0,1,9.48,3.16C268.48,198.36,250.32,224.31,221.08,224.31Z"/><path fill="#3f456b" d="M113,138a5,5,0,0,1-4.87-3.88c-2.4-10.37-.08-33.07,25.82-44.68a58.4,58.4,0,0,1,48.82.89c11.35,5.34,19.8,13.71,22,21.84a5,5,0,1,1-9.64,2.66c-1.2-4.35-6.82-10.82-16.66-15.46a48.44,48.44,0,0,0-40.46-.81c-10.58,4.74-17.17,11.84-19.59,21.08a29.06,29.06,0,0,0-.59,12.24,5,5,0,0,1-3.75,6A4.76,4.76,0,0,1,113,138Z"/><path fill="#3f456b" d="M175.82,171.5A5,5,0,0,1,172.2,170c-3.55-3.74-14.47-4.95-19.2-4.95a5,5,0,0,1,0-10c1.92,0,19,.23,26.44,8.05a5,5,0,0,1-3.62,8.45Z"/><path fill="#3f456b" d="M284,90a5.81,5.81,0,0,1-.72,0,5,5,0,0,1-4.24-5.66C280.3,75.54,288.79,59,312,59a5,5,0,0,1,0,10C291.57,69,289.05,85,289,85.71A5,5,0,0,1,284,90Z"/><path fill="#3f456b" d="M421.32,237.32A31.85,31.85,0,0,1,411,235.75a5,5,0,0,1,3.41-9.4c.61.22,13.59,4.54,25-6.89a5,5,0,0,1,7.08,7.08C437.79,235.28,428.29,237.32,421.32,237.32Z"/><path fill="#3f456b" d="M335,168a5,5,0,0,1-4.47-2.76c-6.13-12.27-18.65-18.71-18.78-18.77a5,5,0,0,1,4.49-8.94c.63.31,15.57,7.92,23.23,23.23A5,5,0,0,1,335,168Z"/><path fill="#3f456b" d="M221.81,501a5.06,5.06,0,0,1-2-.42,5,5,0,0,1-2.93-5.37l15.74-98.87-42.87,7.43a5,5,0,0,1-5.75-6l16.46-77.59a5,5,0,0,1,9.79,2.08l-14.93,70.36,42.49-7.36A5,5,0,0,1,243.6,391l-13.82,86.79L321.67,361l-35.76,4.4a5,5,0,0,1-5.54-5.83l5.71-32.41a5,5,0,0,1,9.84,1.74l-4.53,25.75,41.1-5.06a5,5,0,0,1,4.54,8.06L225.74,499.06A5,5,0,0,1,221.81,501Z"/><path fill="#3f456b" d="M97,326a5,5,0,0,1-5-5v-1a5,5,0,0,1,10,0v1A5,5,0,0,1,97,326Z"/><path fill="#3f456b" d="M64,326a5,5,0,0,1-5-5v-1a5,5,0,0,1,10,0v1A5,5,0,0,1,64,326Z"/><path fill="#3f456b" d="M128,326a5,5,0,0,1-5-5v-1a5,5,0,0,1,10,0v1A5,5,0,0,1,128,326Z"/><path fill="#3f456b" d="M477,501a5,5,0,0,1-2.55-.7l-26.09-15.46A99,99,0,0,1,416.5,490c-47.15,0-85.5-32.3-85.5-72s38.35-72,85.5-72S502,378.3,502,418c0,17.3-7.31,33.88-20.63,46.93l.63,31a5,5,0,0,1-5,5.1Zm-28.1-26.65a5,5,0,0,1,2.55.7l20.37,12.07-.49-24.19a5,5,0,0,1,1.61-3.77C485.23,447.8,492,433.18,492,418c0-34.19-33.87-62-75.5-62S341,383.81,341,418s33.87,62,75.5,62a89,89,0,0,0,30.68-5.34A4.88,4.88,0,0,1,448.9,474.35Z"/><path fill="#3f456b" d="M36,403a5,5,0,0,1-5-5.1l.63-31C18.31,353.88,11,337.3,11,320c0-39.7,38.35-72,85.5-72S182,280.3,182,320s-38.35,72-85.5,72a99,99,0,0,1-31.86-5.16L38.55,402.3A5,5,0,0,1,36,403ZM96.5,258C54.87,258,21,285.81,21,320c0,15.18,6.77,29.8,19.06,41.16a5,5,0,0,1,1.61,3.77l-.49,24.19,20.37-12.07a5,5,0,0,1,4.27-.39A89,89,0,0,0,96.5,382c41.63,0,75.5-27.81,75.5-62S138.13,258,96.5,258Z"/><path fill="#3f456b" d="M417,423a5,5,0,0,1-5-5v-1a5,5,0,0,1,10,0v1A5,5,0,0,1,417,423Z"/><path fill="#3f456b" d="M384,423a5,5,0,0,1-5-5v-1a5,5,0,0,1,10,0v1A5,5,0,0,1,384,423Z"/><path fill="#3f456b" d="M448,423a5,5,0,0,1-5-5v-1a5,5,0,0,1,10,0v1A5,5,0,0,1,448,423Z"/></g></svg>