<svg xmlns="http://www.w3.org/2000/svg"  viewBox="0 0 64 64" width="64px" height="64px"><path fill="#37474F" d="M59.316,38.735c-1.101-1.203-3.027-1.959-5.132-0.474c-1.867,1.316-3.897,3.136-4.315,3.514 l-2.216,0.799C46.87,40.488,44.855,39,42.5,39h-7.881c-0.463-0.226-2.221-1-4.541-1c-3.26,0-6.449,1.244-8.533,3.327 l-3.183,3.183l0.707,0.707l3.183-3.183C24.124,40.163,27.123,39,30.078,39c2.395,0,4.168,0.931,4.186,0.941L34.375,40H42.5 c2.481,0,4.5,2.019,4.5,4.5V45H36v1h12v-1.5c0-0.327-0.029-0.647-0.083-0.958l2.385-0.86l0.168-0.102 c0.023-0.021,2.293-2.094,4.291-3.502c1.981-1.397,3.424-0.099,3.818,0.332c0.591,0.646,0.562,1.63-0.067,2.24l-6.317,6.124 c-0.261,0.254-0.567,0.445-0.91,0.567l-9.56,3.399C41.24,51.913,40.732,52,40.217,52H29.872c-0.639,0-1.247,0.241-1.711,0.678 l-0.84,0.79l0.707,0.707l0.818-0.768C29.124,53.145,29.488,53,29.872,53h10.346c0.63,0,1.25-0.107,1.842-0.318l9.56-3.399 c0.48-0.171,0.908-0.438,1.272-0.792l6.316-6.123C60.228,41.379,60.275,39.783,59.316,38.735z"/><polygon fill="#37474F" points="26.579,58.826 17.395,50.328 18.074,49.594 26.532,57.42 28.491,55.345 18.27,45.124 5.979,56.575 5.297,55.843 18.294,43.734 29.885,55.326"/><path fill="#37474F" d="M28.314,18.262c-0.103,0-0.207-0.032-0.296-0.097c-1.037-0.764-1.656-1.987-1.656-3.273 c0-1.79,1.198-3.392,2.913-3.897c0.267-0.079,0.543,0.074,0.621,0.338c0.078,0.265-0.073,0.543-0.338,0.621 c-1.292,0.381-2.195,1.589-2.195,2.938c0,0.97,0.467,1.892,1.249,2.468c0.222,0.164,0.27,0.477,0.106,0.699 C28.62,18.191,28.468,18.262,28.314,18.262z"/><path fill="#37474F" d="M29.237,33.972c-2.076,0-3.765-1.689-3.765-3.765c0-1.093,0.474-2.13,1.301-2.847 c0.208-0.18,0.523-0.158,0.706,0.05c0.181,0.209,0.158,0.525-0.05,0.706c-0.607,0.526-0.956,1.289-0.956,2.091 c0,1.525,1.24,2.765,2.765,2.765c0.276,0,0.5,0.224,0.5,0.5S29.513,33.972,29.237,33.972z"/><path fill="#37474F" d="M26.364,29.039c-0.074,0-0.149-0.016-0.219-0.051c-1.404-0.688-2.276-2.086-2.276-3.649 c0-2.24,1.822-4.062,4.062-4.062c0.276,0,0.5,0.224,0.5,0.5s-0.224,0.5-0.5,0.5c-1.688,0-3.062,1.374-3.062,3.062 c0,1.178,0.657,2.232,1.715,2.75c0.248,0.122,0.351,0.421,0.229,0.669C26.727,28.936,26.549,29.039,26.364,29.039z"/><path fill="#37474F" d="M36.596,37c-0.697,0-1.4-0.172-2.032-0.499l-0.144-0.075c-0.468,0.179-0.963,0.269-1.475,0.269 c-1.762,0-3.314-1.111-3.896-2.745c-1.99-0.128-3.587-1.816-3.587-3.824c0-0.446,0.108-0.987,0.271-1.416 c-0.613-0.5-1.79-1.69-1.79-3.452c0-1.261,0.529-2.385,1.472-3.165c-0.555-0.635-0.864-1.449-0.864-2.31 c0-1.451,0.862-2.709,2.16-3.245c-0.22-0.513-0.335-1.064-0.335-1.623c0-1.733,1.123-3.315,2.747-3.896 c0.127-1.999,1.793-3.586,3.823-3.586c0.225,0,0.448,0.02,0.668,0.059C34.167,6.022,35.604,5,37.204,5 c2.114,0,3.834,1.719,3.834,3.832c0,0.86-0.278,1.672-0.793,2.336c0.793,0.829,0.793,2.19,0.793,3.138 c0,0.908,0,2.206-0.707,3.043c0.707,0.836,0.707,2.134,0.707,3.042c0,0.908,0,2.206-0.707,3.042 c0.707,0.837,0.707,2.135,0.707,3.042c0,0.974,0,2.505-0.978,3.31c0.627,0.783,0.978,1.764,0.978,2.774 C41.038,35.008,39.045,37,36.596,37z M34.443,35.376c0.079,0,0.158,0.019,0.23,0.056l0.35,0.181 C35.514,35.866,36.058,36,36.596,36c1.897,0,3.441-1.543,3.441-3.44c0-0.953-0.403-1.873-1.107-2.524 c-0.127-0.118-0.185-0.293-0.151-0.463c0.034-0.17,0.153-0.311,0.315-0.372c0.873-0.327,0.943-1.427,0.943-2.725 c0-0.913,0-2.163-0.727-2.619c-0.146-0.091-0.234-0.251-0.234-0.423s0.088-0.332,0.234-0.423c0.727-0.456,0.727-1.707,0.727-2.619 s0-2.163-0.726-2.618c-0.146-0.091-0.234-0.251-0.234-0.423c0-0.172,0.088-0.332,0.234-0.423c0.727-0.456,0.727-1.707,0.727-2.62 c0-0.931,0-2.205-0.767-2.642c-0.137-0.078-0.229-0.216-0.249-0.373c-0.02-0.156,0.036-0.313,0.15-0.422 c0.558-0.536,0.866-1.259,0.866-2.037C40.038,7.271,38.766,6,37.204,6c-1.31,0-2.471,0.926-2.761,2.201 c-0.031,0.137-0.118,0.254-0.239,0.323c-0.122,0.069-0.267,0.084-0.4,0.042c-0.278-0.089-0.567-0.134-0.858-0.134 c-1.561,0-2.831,1.271-2.831,2.833c0.006,0.218-0.128,0.513-0.334,0.584l-0.205,0.071c-1.301,0.414-2.2,1.643-2.2,2.994 c0,0.582,0.165,1.154,0.478,1.656c0.086,0.138,0.1,0.309,0.036,0.459s-0.195,0.259-0.354,0.294 c-1.168,0.253-1.984,1.264-1.984,2.458c0,0.773,0.349,1.493,0.956,1.975c0.128,0.102,0.199,0.259,0.188,0.423 c-0.01,0.163-0.1,0.311-0.24,0.396c-0.961,0.584-1.513,1.561-1.513,2.681c0,1.788,1.666,2.861,1.683,2.872 c0.231,0.146,0.302,0.452,0.159,0.685c-0.152,0.248-0.322,0.847-0.322,1.312c0,1.518,1.234,2.788,2.751,2.831 c0.017,0,0.034,0.002,0.051,0.004l0.156,0c0,0,0,0,0.001,0c0.229,0,0.428,0.155,0.484,0.376c0.356,1.389,1.606,2.359,3.04,2.359 c0.453,0,0.887-0.093,1.292-0.275C34.303,35.391,34.373,35.376,34.443,35.376z"/><path fill="#37474F" d="M29.909,12.981c-0.195,0-0.38-0.114-0.46-0.305c-0.197-0.465-0.296-0.958-0.296-1.466 c0-2.076,1.689-3.765,3.765-3.765c0.726,0,1.432,0.207,2.039,0.6c0.232,0.149,0.299,0.459,0.149,0.691 c-0.149,0.232-0.458,0.298-0.691,0.149c-0.446-0.288-0.963-0.439-1.497-0.439c-1.525,0-2.765,1.24-2.765,2.765 c0,0.374,0.073,0.735,0.217,1.076c0.107,0.254-0.011,0.548-0.266,0.655C30.041,12.969,29.975,12.981,29.909,12.981z"/><path fill="#37474F" d="M32.15,19.787c-0.281-0.199-0.465-0.497-0.517-0.838c-0.049-0.33,0.033-0.66,0.232-0.928 c0.2-0.268,0.491-0.443,0.819-0.492c0.175-0.025,0.349-0.015,0.515,0.03c0.129,0.036,0.264,0.019,0.38-0.047 c0.116-0.066,0.199-0.173,0.234-0.301c0.072-0.261-0.093-0.545-0.348-0.614c-0.303-0.083-0.614-0.103-0.926-0.057 c-0.264,0.04-0.514,0.126-0.749,0.258c-0.23-0.724-0.84-1.307-1.583-1.501c-0.129-0.034-0.264-0.015-0.379,0.052 c-0.116,0.067-0.198,0.177-0.232,0.307c-0.017,0.066-0.02,0.133-0.01,0.198c0.03,0.193,0.179,0.361,0.369,0.41 c0.479,0.124,0.852,0.541,0.926,1.027c0.021,0.14,0.018,0.282-0.001,0.396c-0.003,0.01-0.005,0.034-0.008,0.059 c-0.217,0.423-0.296,0.889-0.228,1.351c0.092,0.614,0.421,1.149,0.927,1.507c0,0,0.007,0.005,0.009,0.006 c0.223,0.152,0.532,0.097,0.69-0.125C32.43,20.258,32.376,19.945,32.15,19.787z M31.723,20.4L31.723,20.4l-0.001,0.002 L31.723,20.4z"/><path fill="#37474F" d="M37.173,25.376c-0.345-0.006-0.664-0.148-0.899-0.401c-0.227-0.245-0.344-0.563-0.331-0.897 c0.014-0.334,0.155-0.643,0.399-0.868c0.13-0.12,0.279-0.209,0.442-0.265c0.127-0.043,0.229-0.133,0.287-0.253 s0.067-0.255,0.023-0.381c-0.087-0.256-0.384-0.398-0.634-0.311c-0.297,0.102-0.564,0.261-0.797,0.475 c-0.195,0.181-0.354,0.394-0.473,0.635c-0.599-0.469-1.431-0.606-2.153-0.349c-0.126,0.045-0.227,0.136-0.284,0.257 s-0.063,0.257-0.019,0.384c0.023,0.064,0.059,0.122,0.104,0.169c0.134,0.143,0.352,0.197,0.536,0.131 c0.466-0.168,1.009-0.034,1.344,0.327c0.096,0.104,0.174,0.223,0.222,0.327c0.003,0.011,0.015,0.032,0.026,0.053 c0.059,0.472,0.256,0.901,0.572,1.245c0.422,0.455,0.995,0.712,1.615,0.722c0.001,0,0.009,0,0.011,0c0.27,0,0.494-0.22,0.5-0.492 C37.669,25.608,37.449,25.38,37.173,25.376z M37.166,26.124L37.166,26.124v0.002V26.124z"/><path fill="#37474F" d="M32.453,29.036c0.615-0.087,1.152-0.413,1.514-0.917c0.078-0.109,0.109-0.241,0.088-0.374 c-0.021-0.132-0.094-0.247-0.203-0.326c-0.213-0.153-0.54-0.101-0.696,0.115c-0.201,0.281-0.501,0.462-0.843,0.511 c-0.69,0.095-1.316-0.394-1.41-1.064c-0.025-0.174-0.014-0.347,0.033-0.513c0.037-0.129,0.021-0.264-0.044-0.381 s-0.172-0.201-0.3-0.237c-0.258-0.077-0.548,0.086-0.617,0.343c-0.086,0.299-0.107,0.611-0.063,0.926 c0.037,0.263,0.122,0.515,0.252,0.75c-0.734,0.225-1.312,0.813-1.515,1.573c-0.069,0.267,0.089,0.541,0.353,0.611 c0.042,0.012,0.086,0.018,0.13,0.018c0.011,0,0.059-0.004,0.07-0.005c0.2-0.028,0.362-0.172,0.413-0.365 c0.131-0.487,0.538-0.847,1.036-0.917c0.138-0.02,0.277-0.018,0.422,0.012c0.007,0.001,0.021,0.002,0.037,0.003 C31.524,29.016,31.981,29.102,32.453,29.036z"/><path fill="#37474F" d="M36.161,30.281c-0.122,0.054-0.216,0.152-0.265,0.276c-0.049,0.125-0.046,0.261,0.009,0.383 c0.135,0.305,0.143,0.644,0.021,0.956c-0.12,0.312-0.354,0.558-0.66,0.692c-0.306,0.135-0.649,0.142-0.956,0.023 c-0.313-0.121-0.558-0.355-0.691-0.662c-0.109-0.244-0.411-0.362-0.659-0.255c-0.252,0.11-0.367,0.406-0.257,0.66 c0.244,0.551,0.687,0.973,1.246,1.189c0.262,0.102,0.535,0.153,0.813,0.153c0.313,0,0.619-0.065,0.909-0.193 c0.55-0.242,0.972-0.684,1.189-1.245c0.217-0.56,0.202-1.17-0.041-1.721C36.711,30.292,36.4,30.175,36.161,30.281z"/><path fill="#37474F" d="M33.713,13.212c0.383,0.466,0.947,0.733,1.548,0.733c0.006,0,0.013,0,0.019,0 c-0.013,0.085-0.019,0.168-0.019,0.25c0,0.535,0.208,1.037,0.586,1.415c0.095,0.094,0.22,0.146,0.354,0.146 s0.259-0.052,0.354-0.146c0.195-0.195,0.195-0.512,0-0.707c-0.188-0.189-0.293-0.44-0.293-0.708c0-0.282,0.12-0.553,0.329-0.742 c0.034-0.031,0.058-0.063,0.075-0.089c0.385-0.38,0.596-0.882,0.596-1.418c0-0.437-0.139-0.853-0.4-1.201 c-0.161-0.212-0.49-0.257-0.699-0.1c-0.107,0.08-0.177,0.197-0.195,0.329c-0.02,0.132,0.015,0.264,0.095,0.371 c0.131,0.174,0.2,0.381,0.2,0.601c0,0.551-0.448,1-1,1c-0.301,0-0.583-0.134-0.774-0.367c-0.166-0.204-0.491-0.242-0.705-0.069 C33.571,12.684,33.54,12.999,33.713,13.212z"/><g><path fill="#37474F" d="M46.51,37c-2.449,0-4.441-1.992-4.441-4.44c0-1.01,0.351-1.991,0.978-2.774 c-0.978-0.805-0.978-2.336-0.978-3.31c0-0.908,0-2.205,0.707-3.042c-0.707-0.837-0.707-2.134-0.707-3.042 c0-0.908,0-2.205,0.707-3.042c-0.707-0.837-0.707-2.135-0.707-3.043c0-0.948,0-2.31,0.793-3.138 c-0.515-0.665-0.793-1.477-0.793-2.336c0-2.113,1.72-3.832,3.833-3.832c1.601,0,3.038,1.022,3.59,2.492 c0.22-0.04,0.444-0.059,0.668-0.059c2.03,0,3.696,1.587,3.823,3.586c1.619,0.574,2.747,2.159,2.747,3.896 c0,0.558-0.115,1.109-0.335,1.623c1.298,0.536,2.16,1.794,2.16,3.245c0,0.861-0.309,1.675-0.864,2.31 c0.942,0.78,1.472,1.904,1.472,3.165c0,1.762-1.176,2.952-1.789,3.452c0.163,0.429,0.271,0.97,0.271,1.416 c0,2.008-1.597,3.696-3.587,3.824c-0.583,1.634-2.134,2.745-3.896,2.745c-0.511,0-1.006-0.09-1.475-0.269l-0.144,0.074 C47.91,36.828,47.207,37,46.51,37z M45.902,6c-1.563,0-2.833,1.271-2.833,2.832c0,0.777,0.308,1.501,0.866,2.038 c0.113,0.109,0.169,0.266,0.149,0.422c-0.02,0.157-0.111,0.295-0.249,0.373c-0.767,0.437-0.767,1.711-0.767,2.642 c0,0.913,0,2.164,0.726,2.62c0.146,0.091,0.234,0.251,0.234,0.423s-0.088,0.332-0.234,0.423c-0.726,0.456-0.726,1.706-0.726,2.618 c0,0.913,0,2.163,0.726,2.619c0.146,0.091,0.234,0.251,0.234,0.423s-0.088,0.332-0.234,0.423 c-0.726,0.457-0.726,1.707-0.726,2.619c0,1.297,0.071,2.397,0.943,2.725c0.162,0.061,0.281,0.202,0.315,0.372 c0.033,0.17-0.024,0.345-0.151,0.463c-0.704,0.651-1.107,1.571-1.107,2.524c0,1.897,1.544,3.44,3.441,3.44 c0.538,0,1.082-0.134,1.574-0.387l0.349-0.181c0.137-0.07,0.297-0.074,0.436-0.012c0.405,0.183,0.84,0.275,1.292,0.275 c1.434,0,2.684-0.97,3.04-2.359c0.057-0.221,0.256-0.376,0.484-0.376c0,0,0.001,0,0.001,0l0.162,0 c0.016-0.002,0.032-0.004,0.046-0.004c1.517-0.043,2.751-1.313,2.751-2.831c0-0.465-0.17-1.064-0.322-1.311 c-0.144-0.232-0.073-0.537,0.157-0.685c0.017-0.011,1.684-1.099,1.684-2.873c0-1.137-0.537-2.089-1.512-2.681 c-0.14-0.085-0.229-0.233-0.24-0.396c-0.01-0.164,0.06-0.321,0.188-0.423c0.607-0.482,0.956-1.202,0.956-1.975 c0-1.194-0.816-2.205-1.984-2.458c-0.159-0.035-0.291-0.144-0.354-0.294s-0.05-0.321,0.036-0.459 c0.313-0.502,0.478-1.075,0.478-1.656c0-1.351-0.899-2.581-2.188-2.99l-0.218-0.076c-0.206-0.071-0.341-0.269-0.336-0.487 c0.002-1.66-1.268-2.93-2.829-2.93c-0.291,0-0.58,0.045-0.858,0.134c-0.135,0.042-0.279,0.026-0.4-0.042 c-0.122-0.069-0.208-0.187-0.239-0.323C48.374,6.926,47.212,6,45.902,6z"/><path fill="#37474F" d="M56.742,29.039c-0.185,0-0.363-0.103-0.45-0.28c-0.121-0.248-0.019-0.547,0.229-0.669 c1.058-0.518,1.715-1.572,1.715-2.75c0-1.688-1.374-3.062-3.062-3.062c-0.276,0-0.5-0.224-0.5-0.5s0.224-0.5,0.5-0.5 c2.24,0,4.062,1.822,4.062,4.062c0,1.563-0.872,2.961-2.276,3.649C56.891,29.023,56.816,29.039,56.742,29.039z"/><path fill="#37474F" d="M54.792,18.262c-0.154,0-0.305-0.07-0.403-0.204c-0.164-0.222-0.116-0.535,0.106-0.699 c0.782-0.576,1.249-1.498,1.249-2.468c0-1.349-0.902-2.557-2.195-2.938c-0.265-0.078-0.417-0.356-0.338-0.621 c0.078-0.264,0.357-0.418,0.621-0.338c1.715,0.505,2.913,2.107,2.913,3.897c0,1.286-0.619,2.51-1.656,3.273 C54.999,18.23,54.895,18.262,54.792,18.262z"/><path fill="#37474F" d="M53.87,33.972c-0.276,0-0.5-0.224-0.5-0.5s0.224-0.5,0.5-0.5c1.525,0,2.765-1.24,2.765-2.765 c0-0.802-0.349-1.564-0.956-2.091c-0.208-0.181-0.231-0.497-0.05-0.706c0.182-0.208,0.497-0.23,0.706-0.05 c0.827,0.716,1.301,1.754,1.301,2.847C57.635,32.283,55.946,33.972,53.87,33.972z"/><path fill="#37474F" d="M53.197,12.981c-0.065,0-0.131-0.013-0.195-0.04c-0.254-0.107-0.373-0.401-0.266-0.655 c0.144-0.341,0.217-0.703,0.217-1.076c0-1.525-1.24-2.765-2.765-2.765c-0.534,0-1.051,0.152-1.497,0.439 c-0.231,0.149-0.542,0.083-0.691-0.149c-0.15-0.232-0.083-0.542,0.149-0.691c0.607-0.393,1.313-0.6,2.039-0.6 c2.076,0,3.765,1.689,3.765,3.765c0,0.508-0.1,1.001-0.296,1.466C53.577,12.867,53.392,12.981,53.197,12.981z"/><path fill="#37474F" d="M50.835,20.484c0.158,0.222,0.468,0.277,0.69,0.125c0.001-0.001,0.008-0.006,0.009-0.006 c0.506-0.358,0.835-0.893,0.927-1.507c0.068-0.462-0.011-0.928-0.229-1.351c-0.002-0.024-0.004-0.048-0.008-0.059 c-0.019-0.113-0.021-0.255-0.001-0.396c0.073-0.487,0.446-0.903,0.926-1.027c0.19-0.049,0.339-0.217,0.369-0.41 c0.01-0.065,0.007-0.132-0.01-0.198c-0.034-0.13-0.116-0.239-0.232-0.307c-0.116-0.067-0.25-0.086-0.379-0.052 c-0.743,0.194-1.352,0.777-1.583,1.501c-0.235-0.132-0.485-0.219-0.749-0.258c-0.313-0.046-0.624-0.027-0.926,0.057 c-0.255,0.069-0.42,0.354-0.348,0.614c0.034,0.128,0.118,0.235,0.234,0.301c0.116,0.066,0.251,0.083,0.38,0.047 c0.167-0.045,0.34-0.056,0.515-0.03c0.329,0.049,0.62,0.224,0.819,0.492c0.198,0.269,0.281,0.598,0.232,0.928 c-0.052,0.341-0.235,0.639-0.517,0.838C50.73,19.945,50.677,20.258,50.835,20.484z M51.385,20.402L51.383,20.4l0,0L51.385,20.402 z"/><path fill="#37474F" d="M45.441,25.884c0.006,0.272,0.23,0.492,0.5,0.492c0.002,0,0.01,0,0.011,0 c0.62-0.01,1.193-0.267,1.615-0.722c0.316-0.344,0.514-0.773,0.572-1.245c0.012-0.021,0.023-0.042,0.026-0.053 c0.048-0.104,0.126-0.223,0.222-0.327c0.335-0.361,0.878-0.495,1.344-0.327c0.185,0.066,0.402,0.012,0.536-0.131 c0.045-0.048,0.08-0.105,0.104-0.169c0.045-0.126,0.039-0.263-0.019-0.384s-0.158-0.212-0.284-0.257 c-0.723-0.258-1.555-0.12-2.153,0.349c-0.119-0.242-0.277-0.454-0.473-0.635c-0.232-0.214-0.5-0.374-0.797-0.475 c-0.25-0.087-0.547,0.055-0.634,0.311c-0.044,0.125-0.035,0.261,0.023,0.381s0.16,0.21,0.287,0.253 c0.163,0.056,0.313,0.146,0.442,0.265c0.244,0.226,0.386,0.534,0.399,0.868c0.013,0.334-0.104,0.653-0.331,0.897 c-0.235,0.253-0.555,0.396-0.899,0.401C45.658,25.38,45.437,25.608,45.441,25.884z M45.941,26.126v-0.002l0,0V26.126z"/><path fill="#37474F" d="M50.654,29.036c-0.615-0.087-1.152-0.413-1.514-0.917c-0.078-0.109-0.109-0.241-0.088-0.374 c0.021-0.132,0.094-0.247,0.203-0.326c0.213-0.153,0.54-0.101,0.696,0.115c0.201,0.281,0.501,0.462,0.843,0.511 c0.69,0.095,1.316-0.394,1.41-1.064c0.025-0.174,0.014-0.347-0.033-0.513c-0.037-0.129-0.021-0.264,0.044-0.381 s0.172-0.201,0.3-0.237c0.258-0.077,0.548,0.086,0.617,0.343c0.086,0.299,0.107,0.611,0.063,0.926 c-0.037,0.263-0.122,0.515-0.252,0.75c0.734,0.225,1.312,0.813,1.515,1.573c0.069,0.267-0.089,0.541-0.353,0.611 c-0.042,0.012-0.086,0.018-0.13,0.018c-0.011,0-0.059-0.004-0.07-0.005c-0.2-0.028-0.362-0.172-0.413-0.365 c-0.131-0.487-0.538-0.847-1.036-0.917c-0.138-0.02-0.277-0.018-0.422,0.012c-0.007,0.001-0.021,0.002-0.037,0.003 C51.583,29.016,51.125,29.102,50.654,29.036z"/><path fill="#37474F" d="M46.946,30.281c0.122,0.054,0.216,0.152,0.265,0.276c0.049,0.125,0.046,0.261-0.009,0.383 c-0.135,0.305-0.143,0.644-0.021,0.956c0.12,0.312,0.354,0.558,0.66,0.692c0.306,0.135,0.649,0.142,0.956,0.023 c0.313-0.121,0.558-0.355,0.691-0.662c0.109-0.244,0.411-0.362,0.659-0.255c0.252,0.11,0.367,0.406,0.257,0.66 c-0.244,0.551-0.687,0.973-1.246,1.189c-0.262,0.102-0.535,0.153-0.813,0.153c-0.313,0-0.619-0.065-0.909-0.193 c-0.55-0.242-0.972-0.684-1.189-1.245c-0.217-0.56-0.202-1.17,0.041-1.721C46.395,30.292,46.707,30.175,46.946,30.281z"/><path fill="#37474F" d="M49.393,13.212c-0.383,0.466-0.947,0.733-1.548,0.733c-0.006,0-0.013,0-0.019,0 c0.013,0.085,0.019,0.168,0.019,0.25c0,0.535-0.208,1.037-0.586,1.415c-0.095,0.094-0.22,0.146-0.354,0.146 s-0.259-0.052-0.354-0.146c-0.195-0.195-0.195-0.512,0-0.707c0.188-0.189,0.293-0.44,0.293-0.708c0-0.282-0.12-0.553-0.329-0.742 c-0.034-0.031-0.058-0.063-0.075-0.089c-0.385-0.38-0.596-0.882-0.596-1.418c0-0.437,0.139-0.853,0.4-1.201 c0.161-0.212,0.49-0.257,0.699-0.1c0.107,0.08,0.177,0.197,0.195,0.329c0.02,0.132-0.015,0.264-0.095,0.371 c-0.131,0.174-0.2,0.381-0.2,0.601c0,0.551,0.448,1,1,1c0.301,0,0.583-0.134,0.774-0.367c0.166-0.204,0.491-0.242,0.705-0.069 C49.536,12.684,49.567,12.999,49.393,13.212z"/></g></svg>